<svg version="1.1" id="Layer_1" xmlns="http://www.w3.org/2000/svg" xmlns:xlink="http://www.w3.org/1999/xlink" x="0px" y="0px"
	 width="100%" viewBox="0 0 3300 5100" enable-background="new 0 0 3300 5100" xml:space="preserve">
<path fill="#000000" opacity="1.000000" stroke="none" 
	d="
M952.000000,5104.000000 
	C634.666687,5104.000000 319.333344,5104.000000 4.000000,5104.000000 
	C4.000000,3404.000000 4.000000,1704.000000 4.000000,4.000000 
	C1104.000000,4.000000 2204.000000,4.000000 3304.000000,4.000000 
	C3304.000000,1704.000000 3304.000000,3404.000000 3304.000000,5104.000000 
	C2520.666748,5104.000000 1737.333374,5104.000000 952.000000,5104.000000 
M1650.061279,3221.129150 
	C1650.061279,3221.129150 1651.664185,3220.155029 1655.452759,3219.954834 
	C1724.032349,3219.866699 1792.612061,3219.717041 1861.191650,3219.702881 
	C2036.317627,3219.666748 2211.443604,3219.719482 2386.569580,3219.586182 
	C2393.665283,3219.580811 2401.121338,3221.457520 2409.246826,3217.193604 
	C2409.246826,3210.892334 2409.247070,3204.322510 2409.246826,3197.752686 
	C2409.243896,2920.081543 2409.217773,2642.410400 2409.317383,2364.739258 
	C2409.321533,2352.803223 2410.484619,2340.867920 2412.414795,2325.252930 
	C2412.500488,2297.035889 2412.638428,2268.818848 2412.599854,2240.601807 
	C2412.595703,2237.400391 2411.601318,2234.200684 2410.707275,2227.832520 
	C2410.202881,2219.898926 2409.267090,2211.965576 2409.259277,2204.031494 
	C2409.164551,2107.568604 2409.244385,2011.105835 2409.126221,1914.643188 
	C2409.118408,1908.281250 2411.011230,1901.470337 2406.450928,1894.807373 
	C2399.916504,1894.807373 2393.326660,1894.807373 2386.737061,1894.807373 
	C2315.554199,1894.807373 2244.371338,1894.770142 2173.188477,1894.824707 
	C2141.924072,1894.848633 2110.659424,1895.059937 2076.956543,1893.298096 
	C2067.213623,1893.176147 2057.465088,1892.814209 2047.729736,1893.031616 
	C2042.706543,1893.143555 2037.706299,1894.284912 2028.860596,1894.871582 
	C1660.504150,1894.850220 1292.147583,1894.828979 923.791077,1894.807739 
	C921.792786,1894.807617 919.780640,1894.661255 917.799133,1894.844482 
	C914.035217,1895.192627 910.288818,1895.729980 905.199768,1896.352051 
	C905.199768,1904.622192 905.199768,1911.844238 905.199768,1919.066162 
	C905.199768,2178.181396 905.184875,2437.296875 905.206665,2696.412109 
	C905.216003,2806.985352 905.301819,2917.558594 904.135620,3031.221924 
	C904.535278,3036.752930 904.934937,3042.283936 905.227417,3051.584473 
	C905.218323,3102.141602 905.171265,3152.698486 905.258240,3203.255615 
	C905.267029,3208.362549 906.085266,3213.468018 906.622131,3219.662109 
	C914.421021,3219.662109 920.995850,3219.661865 927.570679,3219.661865 
	C1153.081909,3219.661865 1378.593262,3219.669678 1604.104492,3219.625244 
	C1610.728271,3219.623779 1617.352173,3219.077881 1627.383789,3219.602783 
	C1634.408081,3219.787842 1641.432373,3219.973145 1650.061279,3221.129150 
z"/>
<path fill="#FEFEFF" opacity="1.000000" stroke="none" 
	d="
M905.352844,3028.131836 
	C905.301819,2917.558594 905.216003,2806.985352 905.206665,2696.412109 
	C905.184875,2437.296875 905.199768,2178.181396 905.199768,1919.066162 
	C905.199768,1911.844238 905.199768,1904.622192 905.199768,1896.352051 
	C910.288818,1895.729980 914.035217,1895.192627 917.799133,1894.844482 
	C919.780640,1894.661255 921.792786,1894.807617 923.791077,1894.807739 
	C1292.147583,1894.828979 1660.504150,1894.850220 2031.304932,1896.166870 
	C2033.667847,1898.366089 2033.586548,1899.269897 2031.924805,1900.389404 
	C2018.180054,1905.917236 2005.382690,1910.142456 1993.989258,1916.778442 
	C1973.328735,1928.812012 1957.337158,1945.411865 1950.404541,1969.237183 
	C1949.708374,1971.629639 1948.066772,1973.746826 1946.613647,1976.458984 
	C1942.106323,1975.972656 1938.175781,1975.753662 1934.318237,1975.101685 
	C1865.823120,1963.524780 1796.714722,1959.989136 1727.396973,1959.590210 
	C1659.257202,1959.197998 1595.868896,1977.017212 1536.690308,2010.441162 
	C1531.635254,2013.296265 1526.517334,2016.040161 1519.843384,2019.706421 
	C1517.430176,2016.372437 1515.586548,2013.595703 1513.503296,2011.012207 
	C1511.417236,2008.425415 1509.188843,2005.936035 1506.856934,2003.567139 
	C1475.099976,1971.303467 1436.709717,1956.138550 1391.437012,1959.531372 
	C1367.440796,1961.329712 1345.925415,1969.598755 1329.035767,1987.348633 
	C1313.399170,2003.781982 1306.593018,2023.374146 1310.957275,2046.002075 
	C1316.156128,2072.957520 1330.715942,2093.753906 1354.272583,2107.744873 
	C1362.214844,2112.461914 1371.159912,2115.542969 1379.770020,2119.070801 
	C1392.104858,2124.124512 1404.205688,2129.504395 1414.001709,2138.347168 
	C1414.076782,2139.520508 1414.298584,2140.228271 1414.133423,2140.830078 
	C1412.555908,2146.580811 1410.862671,2152.299805 1409.296631,2158.053711 
	C1394.286133,2213.198242 1388.369263,2269.058838 1394.770874,2326.130127 
	C1398.872925,2362.699951 1408.290283,2397.991455 1417.833984,2433.347412 
	C1426.326538,2464.808594 1434.944580,2496.283936 1441.807739,2528.119629 
	C1446.272461,2548.831055 1449.786011,2570.037109 1445.696289,2591.359131 
	C1441.315552,2592.582275 1438.259644,2593.985107 1434.044189,2596.283936 
	C1426.261353,2612.390137 1426.261353,2612.390137 1435.921021,2627.765625 
	C1429.595825,2643.645264 1420.955566,2658.596680 1410.987915,2672.744385 
	C1389.417725,2703.359863 1364.279541,2730.877930 1336.384155,2755.775146 
	C1299.137207,2789.018555 1260.266357,2820.412598 1224.940430,2855.846680 
	C1206.476318,2874.367432 1184.537476,2888.581543 1160.398315,2898.729248 
	C1138.953857,2907.743896 1117.296509,2916.482666 1095.167847,2923.580811 
	C1067.320801,2932.513428 1038.916992,2939.718018 1010.719849,2947.547607 
	C986.096130,2954.385010 962.870911,2964.137939 943.344360,2981.011230 
	C936.471558,2986.949707 928.217468,2992.211426 926.397278,3002.401123 
	C926.467651,3002.490479 926.397522,3002.382568 925.557373,3002.426758 
	C924.717285,3002.470947 923.874268,3003.926758 922.764648,3004.679443 
	C918.582214,3011.135498 915.125244,3016.674072 912.580505,3022.604248 
	C911.048645,3026.173828 908.241516,3026.937012 905.352844,3028.131836 
z"/>
<path fill="#FCFCFC" opacity="1.000000" stroke="none" 
	d="
M2411.107910,2328.932129 
	C2410.484619,2340.867920 2409.321533,2352.803223 2409.317383,2364.739258 
	C2409.217773,2642.410400 2409.243896,2920.081543 2409.246826,3197.752686 
	C2409.247070,3204.322510 2409.246826,3210.892334 2409.246826,3217.193604 
	C2401.121338,3221.457520 2393.665283,3219.580811 2386.569580,3219.586182 
	C2211.443604,3219.719482 2036.317627,3219.666748 1861.191650,3219.702881 
	C1792.612061,3219.717041 1724.032349,3219.866699 1654.269409,3218.836914 
	C1663.916992,3215.573486 1670.506226,3208.564209 1674.364502,3198.718018 
	C1676.782715,3192.546143 1678.471558,3186.086182 1680.947388,3179.940674 
	C1683.864380,3172.700439 1684.914795,3164.418213 1692.450806,3158.391357 
	C1743.611206,3167.539307 1795.494751,3173.238281 1848.287598,3169.704346 
	C1900.914673,3166.181641 1951.767944,3155.166748 2001.438477,3137.888672 
	C2005.387939,3144.720459 2008.654541,3150.371094 2012.164917,3157.393066 
	C2017.818848,3166.125000 2022.572998,3174.102539 2028.785034,3180.709229 
	C2039.522827,3192.128174 2050.437012,3191.089355 2060.113281,3178.604492 
	C2068.281738,3168.064941 2070.472900,3156.305176 2066.579590,3141.816406 
	C2064.264893,3130.573486 2062.000488,3120.995605 2059.593262,3110.813232 
	C2063.518066,3108.291992 2066.735840,3106.091309 2070.077393,3104.099121 
	C2097.609619,3087.684814 2122.442627,3067.877441 2144.610596,3044.744385 
	C2194.251709,2992.941650 2227.962646,2932.067871 2249.243164,2862.377930 
	C2259.181396,2862.697021 2267.614990,2864.741211 2276.095947,2864.960938 
	C2287.108398,2865.246582 2294.617432,2857.803467 2296.250244,2846.860352 
	C2297.671875,2837.334229 2294.057129,2829.702881 2286.470703,2824.434326 
	C2279.432129,2819.547119 2271.691406,2815.671143 2264.325195,2809.916992 
	C2268.023926,2797.777588 2271.657227,2787.070557 2276.308594,2775.251221 
	C2287.065674,2753.122070 2293.583252,2731.007080 2299.213867,2708.637207 
	C2304.890869,2686.082520 2307.125732,2663.211914 2304.437012,2638.944336 
	C2308.387451,2633.003174 2309.079590,2628.222656 2304.710938,2622.149658 
	C2304.162598,2613.692627 2302.852783,2607.138916 2295.373535,2602.395996 
	C2298.702148,2551.602539 2301.923584,2502.590088 2305.220703,2452.426025 
	C2321.568359,2445.330322 2337.377930,2435.699951 2350.976807,2422.722168 
	C2364.537354,2409.781006 2376.566895,2395.475342 2384.976074,2378.775879 
	C2393.192383,2362.460449 2399.779053,2345.324707 2407.061768,2328.593018 
	C2408.506104,2328.713867 2409.807129,2328.822998 2411.107910,2328.932129 
z"/>
<path fill="#FEFEFF" opacity="1.000000" stroke="none" 
	d="
M1623.975952,3218.786133 
	C1617.352173,3219.077881 1610.728271,3219.623779 1604.104492,3219.625244 
	C1378.593262,3219.669678 1153.081909,3219.661865 927.570679,3219.661865 
	C920.995850,3219.661865 914.421021,3219.662109 906.622131,3219.662109 
	C906.085266,3213.468018 905.267029,3208.362549 905.258240,3203.255615 
	C905.171265,3152.698486 905.218323,3102.141602 905.982666,3050.039062 
	C906.737915,3048.493652 908.175537,3047.918945 909.620728,3047.933838 
	C921.151001,3047.430420 926.648010,3041.985596 928.898499,3031.048828 
	C947.301758,3022.256592 964.745178,3014.297607 982.461914,3007.002441 
	C987.817505,3004.797607 993.930237,3004.431885 999.913025,3004.521240 
	C1004.339600,3011.378906 1005.226501,3011.518066 1007.486023,3006.787109 
	C1008.024109,3005.660400 1008.011292,3004.270508 1009.554932,3002.705078 
	C1012.572021,3002.828125 1014.286072,3003.247559 1016.135498,3004.892578 
	C1017.880737,3007.489746 1019.490662,3008.861572 1021.100586,3010.233643 
	C1022.067993,3008.137207 1023.035400,3006.041016 1025.603760,3003.697754 
	C1031.465942,3004.015137 1035.727417,3004.579102 1040.402344,3006.548340 
	C1042.299194,3009.172607 1043.659302,3011.247803 1045.284302,3011.481445 
	C1067.482422,3014.675781 1089.568726,3018.238525 1110.466919,3026.914062 
	C1111.669556,3027.413574 1113.039307,3027.500488 1114.320801,3027.821289 
	C1134.214722,3032.800781 1153.441772,3039.498779 1172.262207,3047.802246 
	C1184.226074,3053.080322 1197.253662,3056.019287 1209.923218,3059.584229 
	C1213.880249,3060.697266 1217.832153,3059.467285 1221.565674,3055.449463 
	C1224.604614,3056.025635 1226.292480,3056.624512 1228.173828,3058.307373 
	C1230.663452,3064.172607 1233.255249,3063.868408 1237.600464,3059.760254 
	C1246.089722,3061.397461 1253.041870,3063.113037 1260.317871,3066.183350 
	C1268.437500,3073.558350 1271.003296,3073.609131 1281.697754,3067.712158 
	C1288.902466,3068.165039 1294.440430,3068.828857 1300.315674,3070.756836 
	C1303.673584,3074.224121 1306.438232,3076.993408 1309.773438,3078.500488 
	C1315.157593,3080.933594 1316.656860,3079.688477 1321.906860,3071.447510 
	C1342.499878,3071.403564 1361.248535,3071.641357 1380.260010,3073.330078 
	C1390.982056,3083.245850 1399.847534,3081.339355 1409.282104,3068.373535 
	C1412.361084,3067.880371 1414.166870,3067.884033 1416.228271,3069.337891 
	C1418.178467,3075.646973 1421.788696,3075.730469 1426.035400,3074.860840 
	C1448.386475,3070.283203 1470.189453,3062.434326 1494.266602,3063.729492 
	C1496.023071,3064.705078 1496.484741,3065.660645 1496.336426,3068.518555 
	C1498.372559,3079.433350 1498.372559,3079.433350 1510.301758,3079.520020 
	C1511.940430,3080.051270 1512.499268,3080.783691 1512.636108,3083.418457 
	C1515.523315,3091.885986 1515.523315,3091.885986 1524.671631,3091.223877 
	C1524.353516,3091.347168 1524.831665,3090.860107 1524.807129,3092.495605 
	C1527.090576,3101.813477 1533.225098,3099.339355 1539.373291,3099.306152 
	C1541.700562,3100.425293 1543.104370,3101.518555 1544.466431,3104.140625 
	C1545.831909,3113.921143 1551.266968,3117.982910 1558.884277,3120.281006 
	C1570.353882,3123.741455 1581.634277,3127.572510 1591.215210,3135.373535 
	C1594.145630,3137.759521 1598.411499,3139.164062 1602.242188,3139.661865 
	C1613.787231,3141.162109 1623.604858,3146.448486 1632.979004,3153.980713 
	C1630.831787,3162.470947 1628.720825,3169.364746 1627.045288,3176.363037 
	C1624.198608,3188.252197 1624.927856,3199.807617 1629.796631,3211.195312 
	C1626.954468,3214.084229 1625.465210,3216.435059 1623.975952,3218.786133 
z"/>
<path fill="#FEFEFF" opacity="1.000000" stroke="none" 
	d="
M2079.395020,1895.186157 
	C2110.659424,1895.059937 2141.924072,1894.848633 2173.188477,1894.824707 
	C2244.371338,1894.770142 2315.554199,1894.807373 2386.737061,1894.807373 
	C2393.326660,1894.807373 2399.916504,1894.807373 2406.450928,1894.807373 
	C2411.011230,1901.470337 2409.118408,1908.281250 2409.126221,1914.643188 
	C2409.244385,2011.105835 2409.164551,2107.568604 2409.259277,2204.031494 
	C2409.267090,2211.965576 2410.202881,2219.898926 2409.518555,2229.617432 
	C2407.260498,2230.889404 2405.501953,2230.612793 2405.231689,2229.825439 
	C2403.302002,2224.202148 2401.675537,2218.474609 2400.006348,2211.447998 
	C2400.103027,2205.650879 2399.981689,2201.281250 2393.365723,2199.019531 
	C2390.901855,2197.194092 2389.348877,2196.501221 2387.835449,2195.961182 
	C2387.875244,2196.113770 2388.189453,2196.085205 2388.839600,2194.701172 
	C2387.907227,2190.756104 2386.324707,2188.194824 2384.481445,2184.367188 
	C2366.727295,2152.567139 2343.922363,2126.914062 2313.585449,2108.753906 
	C2274.602783,2085.418457 2233.114990,2074.476807 2187.674316,2085.848877 
	C2185.854004,2086.304443 2183.820312,2085.906982 2182.725342,2085.906982 
	C2167.222656,2074.142334 2152.817871,2062.350098 2137.526123,2051.849365 
	C2122.323486,2041.410034 2106.229736,2032.268921 2089.644287,2022.012817 
	C2096.468994,2003.104492 2102.978027,1985.063843 2109.495605,1967.026123 
	C2110.172363,1965.153198 2111.041748,1963.338745 2111.582275,1961.429321 
	C2119.280762,1934.236084 2106.815186,1910.203247 2079.515137,1898.536865 
	C2079.432373,1896.675903 2079.413818,1895.931030 2079.395020,1895.186157 
z"/>
<path fill="#5E6FB3" opacity="1.000000" stroke="none" 
	d="
M999.696228,3003.223633 
	C993.930237,3004.431885 987.817505,3004.797607 982.461914,3007.002441 
	C964.745178,3014.297607 947.301758,3022.256592 927.538696,3031.235596 
	C920.996033,3035.056396 916.346008,3037.200439 912.468994,3040.308594 
	C910.359863,3041.999512 909.563782,3045.328613 908.175537,3047.918945 
	C908.175537,3047.918945 906.737915,3048.493652 906.036255,3048.154297 
	C904.934937,3042.283936 904.535278,3036.752930 904.744263,3029.676758 
	C908.241516,3026.937012 911.048645,3026.173828 912.580505,3022.604248 
	C915.125244,3016.674072 918.582214,3011.135498 923.270508,3005.347656 
	C928.379517,3005.871582 926.683228,3003.757080 926.397522,3002.382568 
	C926.397522,3002.382568 926.467651,3002.490479 927.904175,3002.891357 
	C936.378967,3003.597412 939.887634,2998.129639 943.895874,2993.924072 
	C949.581970,2987.958008 955.974976,2983.731445 964.122864,2981.967285 
	C978.978821,2978.750488 993.755310,2975.169189 1008.594727,2971.874268 
	C1025.373779,2968.148193 1042.169800,2964.495117 1058.989380,2960.957520 
	C1067.410034,2959.186523 1075.844604,2957.303223 1084.368774,2956.238281 
	C1104.925049,2953.670410 1124.371094,2947.207031 1143.660278,2940.119873 
	C1149.247925,2938.066895 1155.566650,2936.677490 1160.014526,2933.083496 
	C1177.270386,2919.139648 1197.585571,2910.511230 1216.735229,2900.058350 
	C1247.671875,2883.172119 1278.081909,2865.622559 1306.495972,2844.743164 
	C1313.961060,2839.257568 1321.106445,2833.338379 1328.524780,2827.786865 
	C1346.573364,2814.281738 1364.452759,2800.531250 1382.859009,2787.528809 
	C1400.167847,2775.301758 1416.271484,2761.340820 1435.022705,2751.156006 
	C1443.766968,2746.406982 1452.134644,2741.417725 1462.316406,2739.518066 
	C1481.285522,2735.978271 1498.903564,2727.837158 1516.949585,2721.264648 
	C1524.404907,2718.549316 1532.085083,2715.252197 1538.248047,2710.416504 
	C1555.449097,2696.919434 1575.136597,2686.966797 1591.196655,2671.721680 
	C1597.522949,2665.716553 1605.056396,2659.613770 1615.673218,2659.873779 
	C1638.978760,2660.445312 1662.307983,2660.054688 1685.627563,2660.046143 
	C1689.760742,2660.044434 1693.595581,2660.686035 1695.257080,2665.557617 
	C1688.864624,2669.568604 1683.115967,2672.269531 1677.770874,2675.615723 
	C1674.132324,2677.893555 1671.059082,2681.074707 1666.511230,2684.029541 
	C1662.105957,2686.640381 1658.922241,2689.073975 1654.365723,2691.763184 
	C1650.686157,2693.293945 1648.278442,2694.416748 1646.088135,2695.867432 
	C1621.220337,2712.337158 1597.821411,2730.705811 1575.247192,2750.191406 
	C1548.704590,2773.103027 1521.954102,2795.775146 1495.155029,2818.386963 
	C1484.039307,2827.765869 1472.030396,2836.145752 1461.410522,2846.035400 
	C1451.761353,2855.020996 1439.075439,2860.533447 1430.506470,2872.199707 
	C1425.952026,2874.758789 1422.669922,2877.242188 1418.050781,2879.971680 
	C1408.589478,2885.879639 1401.037109,2892.735596 1392.222900,2896.956787 
	C1373.265381,2906.035645 1355.921631,2918.120117 1335.483398,2924.596191 
	C1312.759033,2931.796875 1290.135132,2938.953857 1266.881470,2944.408447 
	C1244.353027,2949.693359 1221.915039,2955.057129 1198.999390,2958.512207 
	C1182.679443,2960.972656 1166.677368,2965.996826 1150.311157,2967.582275 
	C1129.162476,2969.631348 1108.611572,2974.564453 1087.854980,2978.337646 
	C1059.907959,2983.417480 1032.297729,2990.362793 1004.585754,2996.695557 
	C1002.901123,2997.080566 1001.594604,2999.120361 999.985107,3001.095215 
	C999.857971,3001.800293 999.696228,3003.223633 999.696228,3003.223633 
z"/>
<path fill="#425262" opacity="1.000000" stroke="none" 
	d="
M1419.387817,2879.725342 
	C1422.669922,2877.242188 1425.952026,2874.758789 1430.741455,2873.807617 
	C1437.019897,2922.185791 1451.898438,2965.723877 1474.364258,3006.981201 
	C1492.897461,3041.016846 1517.349243,3068.921143 1552.250366,3086.857178 
	C1558.732544,3090.188477 1564.907837,3094.113770 1571.364502,3097.498535 
	C1594.823364,3109.797119 1619.273193,3119.637451 1643.801636,3127.647461 
	C1650.504517,3122.939697 1653.048584,3113.753906 1662.036865,3117.652832 
	C1654.147339,3132.806641 1646.412598,3146.615967 1639.379883,3160.773926 
	C1634.877686,3169.837646 1633.922363,3179.807861 1635.333374,3189.825928 
	C1636.414673,3197.504150 1641.868042,3202.303711 1650.109253,3203.525146 
	C1656.987671,3204.544434 1661.090454,3201.943604 1663.973389,3192.706299 
	C1669.164429,3176.074219 1677.047241,3161.162354 1688.053711,3147.569336 
	C1692.461060,3142.126221 1694.487549,3134.755127 1698.918945,3128.753906 
	C1701.343262,3133.452393 1702.446411,3137.658936 1703.760376,3142.669678 
	C1710.546021,3144.198486 1717.531372,3146.279053 1724.668213,3147.302734 
	C1801.877686,3158.376709 1878.477905,3156.327148 1954.218994,3136.305420 
	C1999.639526,3124.299072 2042.049316,3105.702148 2080.567871,3078.643799 
	C2142.058594,3035.447021 2185.757324,2977.862305 2216.890625,2910.050049 
	C2238.714844,2862.514404 2251.002441,2812.262207 2260.122559,2761.077393 
	C2264.435547,2736.871094 2268.481201,2712.617432 2273.684570,2689.642822 
	C2277.170898,2716.467285 2278.301514,2741.976807 2272.970703,2767.404785 
	C2272.403564,2770.110107 2274.454102,2773.364258 2275.290527,2776.363770 
	C2271.657227,2787.070557 2268.023926,2797.777588 2264.241455,2811.187500 
	C2264.046387,2815.588135 2264.000488,2817.285156 2262.746094,2819.862305 
	C2258.411377,2831.149170 2255.285156,2841.555908 2251.115234,2852.707520 
	C2249.300537,2856.732422 2248.530029,2860.012207 2247.759766,2863.291992 
	C2227.962646,2932.067871 2194.251709,2992.941650 2144.610596,3044.744385 
	C2122.442627,3067.877441 2097.609619,3087.684814 2070.077393,3104.099121 
	C2066.735840,3106.091309 2063.518066,3108.291992 2059.593262,3110.813232 
	C2062.000488,3120.995605 2064.264893,3130.573486 2064.887207,3141.951172 
	C2062.116943,3143.831299 2060.988525,3143.911377 2059.254883,3142.675781 
	C2056.008057,3133.201416 2053.366455,3125.042969 2050.368408,3115.783691 
	C2043.379639,3118.932861 2037.264038,3121.327637 2031.499268,3124.383789 
	C2025.215576,3127.715332 2017.564819,3128.849121 2012.779663,3135.051758 
	C2014.119019,3140.526123 2015.374512,3145.657959 2016.101807,3151.875732 
	C2014.356201,3153.981689 2013.138672,3155.001953 2011.921265,3156.021973 
	C2008.654541,3150.371094 2005.387939,3144.720459 2001.438477,3137.888672 
	C1951.767944,3155.166748 1900.914673,3166.181641 1848.287598,3169.704346 
	C1795.494751,3173.238281 1743.611206,3167.539307 1692.450806,3158.391357 
	C1684.914795,3164.418213 1683.864380,3172.700439 1680.947388,3179.940674 
	C1678.471558,3186.086182 1676.782715,3192.546143 1674.364502,3198.718018 
	C1670.506226,3208.564209 1663.916992,3215.573486 1652.375122,3218.937012 
	C1651.664185,3220.155029 1650.061279,3221.129150 1648.701294,3219.463135 
	C1641.944092,3215.417236 1636.546875,3213.037354 1631.149658,3210.657227 
	C1624.927856,3199.807617 1624.198608,3188.252197 1627.045288,3176.363037 
	C1628.720825,3169.364746 1630.831787,3162.470947 1633.924561,3152.913574 
	C1636.545898,3146.111084 1636.402954,3142.667480 1631.508301,3140.699463 
	C1613.748657,3133.559082 1595.919434,3126.570801 1578.352905,3118.977783 
	C1566.860352,3114.010498 1555.775635,3108.099854 1544.508301,3102.611816 
	C1543.104370,3101.518555 1541.700562,3100.425293 1538.530273,3098.214844 
	C1532.786499,3095.018066 1528.809082,3092.939209 1524.831665,3090.860107 
	C1524.831665,3090.860107 1524.353516,3091.347168 1523.988037,3090.115723 
	C1519.977295,3086.522705 1516.331909,3084.161133 1512.686523,3081.799561 
	C1512.499268,3080.783691 1511.940430,3080.051270 1509.665405,3078.359863 
	C1504.357544,3073.700195 1500.394165,3070.282715 1496.430664,3066.865234 
	C1496.484741,3065.660645 1496.023071,3064.705078 1493.677490,3062.407959 
	C1488.160889,3055.537109 1484.628662,3049.272217 1476.248779,3049.329102 
	C1473.170898,3040.660645 1470.502075,3033.215820 1466.909546,3026.247070 
	C1460.875000,3014.540527 1453.569092,3003.456299 1448.006592,2991.545898 
	C1431.463135,2956.123047 1418.536499,2919.654053 1419.387817,2879.725342 
z"/>
<path fill="#4E5760" opacity="1.000000" stroke="none" 
	d="
M2399.952637,2212.780273 
	C2401.675537,2218.474609 2403.302002,2224.202148 2405.231689,2229.825439 
	C2405.501953,2230.612793 2407.260498,2230.889404 2409.698242,2231.201172 
	C2411.601318,2234.200684 2412.595703,2237.400391 2412.599854,2240.601807 
	C2412.638428,2268.818848 2412.500488,2297.035889 2411.761230,2327.092529 
	C2409.807129,2328.822998 2408.506104,2328.713867 2407.061768,2328.593018 
	C2399.779053,2345.324707 2393.192383,2362.460449 2384.976074,2378.775879 
	C2376.566895,2395.475342 2364.537354,2409.781006 2350.976807,2422.722168 
	C2337.377930,2435.699951 2321.568359,2445.330322 2305.220703,2452.426025 
	C2301.923584,2502.590088 2298.702148,2551.602539 2294.206055,2602.866943 
	C2288.936035,2605.968506 2284.940918,2606.818115 2280.810791,2606.020996 
	C2286.641357,2555.033203 2289.337646,2478.400879 2285.709961,2456.403564 
	C2276.854248,2455.227051 2267.758789,2453.678955 2258.598145,2452.872314 
	C2239.696533,2451.208496 2224.477051,2442.519287 2211.503662,2429.210449 
	C2199.734131,2417.136719 2191.207031,2402.875244 2183.950684,2387.825195 
	C2164.241211,2346.947021 2149.233643,2304.268555 2136.106201,2260.914307 
	C2132.847656,2250.152832 2130.827148,2239.016113 2129.913086,2227.835693 
	C2132.701904,2227.448730 2133.815186,2227.278320 2135.472168,2228.406006 
	C2137.394043,2235.534912 2138.654297,2241.395996 2140.168945,2247.190918 
	C2152.162354,2293.065674 2168.133301,2337.424072 2190.810547,2379.197998 
	C2198.791748,2393.900146 2208.185303,2407.560303 2220.369629,2419.199707 
	C2230.752930,2429.118896 2242.775391,2435.984131 2256.864502,2438.667480 
	C2288.012207,2444.599121 2316.568604,2440.307129 2339.873535,2416.539795 
	C2342.203125,2414.163818 2344.756836,2412.005127 2347.047852,2409.594971 
	C2382.389160,2372.419678 2397.881592,2327.605957 2397.796875,2276.907227 
	C2397.788330,2271.881836 2396.552734,2266.858643 2395.639404,2259.972412 
	C2389.895020,2264.126709 2385.918457,2267.359375 2381.606445,2270.054688 
	C2368.239990,2278.409912 2354.060791,2279.475586 2339.586914,2273.483398 
	C2321.931152,2266.174561 2310.610352,2247.044434 2312.581299,2228.647461 
	C2314.795654,2207.983643 2330.412598,2191.403564 2350.985107,2188.285156 
	C2356.622559,2187.430176 2362.396973,2187.478271 2368.224365,2187.104736 
	C2368.085205,2183.988525 2367.996582,2182.006348 2369.043213,2180.533691 
	C2375.038818,2184.006836 2376.294678,2188.608154 2374.586182,2194.393066 
	C2370.038330,2195.994629 2366.530518,2196.526123 2363.889648,2198.328125 
	C2356.016846,2203.700439 2352.677979,2211.321777 2354.892578,2220.805664 
	C2357.009766,2229.872314 2364.113281,2235.872314 2373.138184,2236.666016 
	C2383.169678,2237.548584 2390.564209,2232.927246 2395.088379,2223.010742 
	C2396.655273,2219.575928 2398.328125,2216.189209 2399.952637,2212.780273 
z"/>
<path fill="#5E6FB3" opacity="1.000000" stroke="none" 
	d="
M2078.175781,1894.242188 
	C2079.413818,1895.931030 2079.432373,1896.675903 2077.753906,1898.721680 
	C2061.872803,1900.072876 2047.689087,1900.123291 2033.505371,1900.173828 
	C2033.586548,1899.269897 2033.667847,1898.366089 2033.222412,1896.211670 
	C2037.706299,1894.284912 2042.706543,1893.143555 2047.729736,1893.031616 
	C2057.465088,1892.814209 2067.213623,1893.176147 2078.175781,1894.242188 
z"/>
<path fill="#FCFCFC" opacity="1.000000" stroke="none" 
	d="
M1629.796753,3211.195312 
	C1636.546875,3213.037354 1641.944092,3215.417236 1647.898926,3218.977539 
	C1641.432373,3219.973145 1634.408081,3219.787842 1625.679932,3219.194336 
	C1625.465210,3216.435059 1626.954468,3214.084229 1629.796753,3211.195312 
z"/>
<path fill="#54619B" opacity="1.000000" stroke="none" 
	d="
M1696.072876,2664.522705 
	C1693.595581,2660.686035 1689.760742,2660.044434 1685.627563,2660.046143 
	C1662.307983,2660.054688 1638.978760,2660.445312 1615.673218,2659.873779 
	C1605.056396,2659.613770 1597.522949,2665.716553 1591.196655,2671.721680 
	C1575.136597,2686.966797 1555.449097,2696.919434 1538.248047,2710.416504 
	C1532.085083,2715.252197 1524.404907,2718.549316 1516.949585,2721.264648 
	C1498.903564,2727.837158 1481.285522,2735.978271 1462.316406,2739.518066 
	C1452.134644,2741.417725 1443.766968,2746.406982 1435.022705,2751.156006 
	C1416.271484,2761.340820 1400.167847,2775.301758 1382.859009,2787.528809 
	C1364.452759,2800.531250 1346.573364,2814.281738 1328.524780,2827.786865 
	C1321.106445,2833.338379 1313.961060,2839.257568 1306.495972,2844.743164 
	C1278.081909,2865.622559 1247.671875,2883.172119 1216.735229,2900.058350 
	C1197.585571,2910.511230 1177.270386,2919.139648 1160.014526,2933.083496 
	C1155.566650,2936.677490 1149.247925,2938.066895 1143.660278,2940.119873 
	C1124.371094,2947.207031 1104.925049,2953.670410 1084.368774,2956.238281 
	C1075.844604,2957.303223 1067.410034,2959.186523 1058.989380,2960.957520 
	C1042.169800,2964.495117 1025.373779,2968.148193 1008.594727,2971.874268 
	C993.755310,2975.169189 978.978821,2978.750488 964.122864,2981.967285 
	C955.974976,2983.731445 949.581970,2987.958008 943.895874,2993.924072 
	C939.887634,2998.129639 936.378967,3003.597412 927.833862,3002.802002 
	C928.217468,2992.211426 936.471558,2986.949707 943.344360,2981.011230 
	C962.870911,2964.137939 986.096130,2954.385010 1010.719849,2947.547607 
	C1038.916992,2939.718018 1067.320801,2932.513428 1095.167847,2923.580811 
	C1117.296509,2916.482666 1138.953857,2907.743896 1160.398315,2898.729248 
	C1184.537476,2888.581543 1206.476318,2874.367432 1224.940430,2855.846680 
	C1260.266357,2820.412598 1299.137207,2789.018555 1336.384155,2755.775146 
	C1364.279541,2730.877930 1389.417725,2703.359863 1410.987915,2672.744385 
	C1420.955566,2658.596680 1429.595825,2643.645264 1435.921021,2627.765625 
	C1426.261353,2612.390137 1426.261353,2612.390137 1435.365723,2596.927734 
	C1456.677612,2607.968994 1476.303345,2617.385498 1497.728882,2622.791260 
	C1502.848877,2624.083008 1507.682617,2626.482910 1512.692993,2628.244873 
	C1516.427734,2629.558350 1520.165771,2630.994629 1524.022339,2631.805664 
	C1538.270630,2634.802246 1552.617554,2637.339600 1566.837891,2640.457520 
	C1593.368286,2646.275391 1619.760010,2652.813477 1647.247803,2652.115234 
	C1651.165649,2652.015869 1655.108398,2653.152832 1659.049072,2653.640869 
	C1665.606934,2654.453369 1672.170166,2655.852051 1678.735352,2655.876709 
	C1726.722534,2656.057129 1774.710815,2655.968018 1822.698730,2655.924072 
	C1826.689331,2655.920410 1831.026001,2656.580322 1834.607422,2655.286621 
	C1846.931763,2650.834473 1859.605347,2652.164551 1872.192505,2652.028809 
	C1887.520386,2651.863525 1902.852295,2652.071777 1918.179810,2651.889893 
	C1923.470581,2651.827148 1928.761963,2651.163086 1934.037842,2650.625732 
	C1941.923950,2649.822754 1949.794434,2648.148193 1957.675293,2648.125488 
	C2028.990112,2647.920654 2100.305664,2648.002441 2171.621094,2647.972168 
	C2177.614990,2647.969727 2183.875488,2648.849121 2189.555908,2647.457275 
	C2211.617188,2642.052002 2234.428955,2644.327148 2256.608643,2640.099854 
	C2273.516357,2636.877686 2290.947998,2635.779297 2304.711670,2623.616943 
	C2309.079590,2628.222656 2308.387451,2633.003174 2302.855957,2639.147461 
	C2294.127686,2641.631836 2287.791260,2643.211426 2281.357910,2643.959229 
	C2271.047852,2645.158447 2260.756836,2646.101562 2250.077148,2652.107666 
	C2223.656494,2651.364014 2199.234375,2652.952637 2174.716064,2654.854004 
	C2138.354492,2657.673828 2101.808350,2658.288086 2065.325928,2659.318604 
	C2038.763672,2660.069092 2012.176025,2659.895996 1985.602783,2660.322754 
	C1979.673584,2660.417725 1973.757080,2661.298096 1966.039795,2661.490479 
	C1956.330444,2661.100098 1948.344482,2660.317871 1940.514282,2661.098877 
	C1909.597412,2664.182861 1878.609985,2663.157227 1847.641479,2663.395508 
	C1835.770386,2663.486816 1823.899902,2663.649658 1810.772217,2662.835693 
	C1799.712769,2661.917969 1789.909912,2662.000000 1780.107544,2661.956299 
	C1768.993164,2661.906738 1757.847778,2662.233643 1746.772705,2661.518311 
	C1729.705078,2660.416260 1712.693726,2658.708740 1696.072876,2664.522705 
z"/>
<path fill="#425262" opacity="1.000000" stroke="none" 
	d="
M2031.924805,1900.389404 
	C2047.689087,1900.123291 2061.872803,1900.072876 2077.817871,1899.837646 
	C2106.815186,1910.203247 2119.280762,1934.236084 2111.582275,1961.429321 
	C2111.041748,1963.338745 2110.172363,1965.153198 2109.495605,1967.026123 
	C2102.978027,1985.063843 2096.468994,2003.104492 2089.644287,2022.012817 
	C2106.229736,2032.268921 2122.323486,2041.410034 2137.526123,2051.849365 
	C2152.817871,2062.350098 2167.222656,2074.142334 2182.725342,2085.906982 
	C2183.820312,2085.906982 2185.854004,2086.304443 2187.674316,2085.848877 
	C2233.114990,2074.476807 2274.602783,2085.418457 2313.585449,2108.753906 
	C2343.922363,2126.914062 2366.727295,2152.567139 2384.280273,2186.045898 
	C2384.224121,2191.229980 2384.108154,2193.468994 2382.616699,2195.646973 
	C2379.501709,2195.025391 2377.762207,2194.464844 2376.022461,2193.904053 
	C2376.294678,2188.608154 2375.038818,2184.006836 2367.997559,2179.722168 
	C2360.629639,2171.471436 2355.744141,2164.289795 2350.203613,2157.655029 
	C2326.039307,2128.717041 2295.902832,2108.802490 2259.455811,2098.809570 
	C2234.498047,2091.966797 2209.489258,2090.875000 2184.785889,2099.973389 
	C2159.992676,2109.104736 2143.475586,2126.412354 2136.253174,2151.831299 
	C2133.732178,2160.703369 2132.009033,2170.152344 2132.056396,2179.326416 
	C2132.138428,2195.258057 2133.881836,2211.181152 2134.928711,2227.107666 
	C2133.815186,2227.278320 2132.701904,2227.448730 2129.304932,2226.381592 
	C2124.974854,2209.372559 2121.268799,2193.606201 2121.224854,2177.829346 
	C2121.130371,2144.019287 2132.893066,2115.392578 2162.994629,2096.633301 
	C2164.391602,2095.762695 2165.270264,2094.060303 2166.236816,2092.925781 
	C2165.099609,2091.130371 2164.588867,2089.820557 2163.662842,2088.955811 
	C2160.749512,2086.235352 2157.755127,2083.589355 2154.659668,2081.077881 
	C2113.908691,2048.017090 2068.232178,2024.158936 2018.375366,2008.070679 
	C1958.512939,1988.753784 1896.869141,1979.463257 1834.291626,1976.085815 
	C1798.453125,1974.151611 1762.540894,1972.796387 1726.658325,1972.715332 
	C1697.399048,1972.649292 1668.246460,1975.658081 1638.569580,1984.545166 
	C1592.746704,1997.359741 1549.846436,2017.145874 1529.321533,2034.147583 
	C1529.955078,2040.659058 1530.992188,2047.172485 1530.959473,2053.680664 
	C1530.950439,2055.477539 1527.931274,2058.366211 1525.961792,2058.681152 
	C1524.501099,2058.914551 1521.133057,2055.925049 1520.965576,2054.149170 
	C1519.736816,2041.121338 1515.092651,2029.588135 1506.795654,2019.605225 
	C1481.738892,1989.458130 1449.604370,1971.958252 1410.583740,1968.977295 
	C1386.149780,1967.110718 1362.859619,1972.625366 1343.021362,1988.223511 
	C1323.393921,2003.656006 1315.780396,2029.110718 1324.137573,2052.664551 
	C1331.759644,2074.146484 1344.510864,2091.449707 1366.454834,2100.454102 
	C1371.377319,2102.473877 1376.276733,2104.575195 1381.065674,2106.889404 
	C1391.210083,2111.791748 1401.518677,2116.428223 1411.310303,2121.968506 
	C1423.515381,2128.874756 1435.446411,2136.066650 1449.874756,2137.387939 
	C1451.484985,2137.535156 1452.940796,2139.366455 1454.860718,2140.686523 
	C1447.160767,2149.686523 1436.687866,2142.106689 1428.825317,2145.607422 
	C1427.534668,2147.839355 1426.280884,2149.447754 1425.612305,2151.270752 
	C1423.781006,2156.263916 1421.930298,2161.276611 1420.553589,2166.406494 
	C1403.177734,2231.150635 1401.229858,2296.625732 1414.422852,2362.103516 
	C1421.237915,2395.927002 1431.433716,2429.095215 1440.711548,2462.389893 
	C1452.898438,2506.124023 1463.279907,2550.044678 1458.872314,2595.849121 
	C1453.983643,2594.332520 1450.502441,2592.935791 1447.021240,2591.538818 
	C1449.786011,2570.037109 1446.272461,2548.831055 1441.807739,2528.119629 
	C1434.944580,2496.283936 1426.326538,2464.808594 1417.833984,2433.347412 
	C1408.290283,2397.991455 1398.872925,2362.699951 1394.770874,2326.130127 
	C1388.369263,2269.058838 1394.286133,2213.198242 1409.296631,2158.053711 
	C1410.862671,2152.299805 1412.555908,2146.580811 1414.133423,2140.830078 
	C1414.298584,2140.228271 1414.076782,2139.520508 1414.001709,2138.347168 
	C1404.205688,2129.504395 1392.104858,2124.124512 1379.770020,2119.070801 
	C1371.159912,2115.542969 1362.214844,2112.461914 1354.272583,2107.744873 
	C1330.715942,2093.753906 1316.156128,2072.957520 1310.957275,2046.002075 
	C1306.593018,2023.374146 1313.399170,2003.781982 1329.035767,1987.348633 
	C1345.925415,1969.598755 1367.440796,1961.329712 1391.437012,1959.531372 
	C1436.709717,1956.138550 1475.099976,1971.303467 1506.856934,2003.567139 
	C1509.188843,2005.936035 1511.417236,2008.425415 1513.503296,2011.012207 
	C1515.586548,2013.595703 1517.430176,2016.372437 1519.843384,2019.706421 
	C1526.517334,2016.040161 1531.635254,2013.296265 1536.690308,2010.441162 
	C1595.868896,1977.017212 1659.257202,1959.197998 1727.396973,1959.590210 
	C1796.714722,1959.989136 1865.823120,1963.524780 1934.318237,1975.101685 
	C1938.175781,1975.753662 1942.106323,1975.972656 1946.613647,1976.458984 
	C1948.066772,1973.746826 1949.708374,1971.629639 1950.404541,1969.237183 
	C1957.337158,1945.411865 1973.328735,1928.812012 1993.989258,1916.778442 
	C2005.382690,1910.142456 2018.180054,1905.917236 2031.924805,1900.389404 
M1991.404541,1929.152100 
	C1975.511475,1941.801147 1962.239624,1956.105835 1959.797485,1978.625000 
	C1980.111084,1984.372314 2000.023438,1989.390747 2019.520752,1995.693237 
	C2039.586304,2002.179565 2059.247070,2009.918091 2078.543945,2016.912598 
	C2080.390869,2015.325195 2081.943359,2014.658081 2082.274902,2013.606323 
	C2088.060791,1995.242798 2094.797852,1977.259644 2101.696533,1959.270630 
	C2110.123047,1937.298462 2097.058838,1914.469849 2074.393799,1907.273804 
	C2065.294678,1904.384888 2056.214355,1904.048706 2046.812744,1905.618408 
	C2027.427490,1908.854980 2009.690552,1915.866211 1991.404541,1929.152100 
z"/>
<path fill="#5E6FB3" opacity="1.000000" stroke="none" 
	d="
M1445.696289,2591.359131 
	C1450.502441,2592.935791 1453.983643,2594.332520 1460.053101,2596.542480 
	C1469.159668,2604.319580 1477.296265,2608.502686 1486.319824,2611.188477 
	C1499.608398,2615.144043 1512.813477,2619.402832 1526.185181,2623.052002 
	C1558.156250,2631.776367 1590.542236,2637.718994 1625.570068,2636.570801 
	C1638.466553,2637.842529 1649.688354,2639.616455 1660.930908,2639.759521 
	C1696.884399,2640.216309 1732.850220,2639.727783 1768.802490,2640.233154 
	C1823.398560,2641.000488 1877.876221,2637.769287 1932.400024,2636.104004 
	C1980.269165,2634.642090 2028.132324,2632.976807 2075.998047,2631.400146 
	C2077.329102,2631.356445 2078.662354,2631.335205 2079.989990,2631.240479 
	C2111.791748,2628.972168 2143.583496,2626.554688 2175.396973,2624.463135 
	C2202.589355,2622.674805 2229.805176,2621.237793 2257.012939,2619.688721 
	C2266.751953,2619.134277 2275.308594,2616.335205 2280.946045,2607.667969 
	C2284.940918,2606.818115 2288.936035,2605.968506 2294.098389,2604.647949 
	C2302.852783,2607.138916 2304.162598,2613.692627 2304.710938,2622.149658 
	C2290.947998,2635.779297 2273.516357,2636.877686 2256.608643,2640.099854 
	C2234.428955,2644.327148 2211.617188,2642.052002 2189.555908,2647.457275 
	C2183.875488,2648.849121 2177.614990,2647.969727 2171.621094,2647.972168 
	C2100.305664,2648.002441 2028.990112,2647.920654 1957.675293,2648.125488 
	C1949.794434,2648.148193 1941.923950,2649.822754 1934.037842,2650.625732 
	C1928.761963,2651.163086 1923.470581,2651.827148 1918.179810,2651.889893 
	C1902.852295,2652.071777 1887.520386,2651.863525 1872.192505,2652.028809 
	C1859.605347,2652.164551 1846.931763,2650.834473 1834.607422,2655.286621 
	C1831.026001,2656.580322 1826.689331,2655.920410 1822.698730,2655.924072 
	C1774.710815,2655.968018 1726.722534,2656.057129 1678.735352,2655.876709 
	C1672.170166,2655.852051 1665.606934,2654.453369 1659.049072,2653.640869 
	C1655.108398,2653.152832 1651.165649,2652.015869 1647.247803,2652.115234 
	C1619.760010,2652.813477 1593.368286,2646.275391 1566.837891,2640.457520 
	C1552.617554,2637.339600 1538.270630,2634.802246 1524.022339,2631.805664 
	C1520.165771,2630.994629 1516.427734,2629.558350 1512.692993,2628.244873 
	C1507.682617,2626.482910 1502.848877,2624.083008 1497.728882,2622.791260 
	C1476.303345,2617.385498 1456.677612,2607.968994 1436.525269,2596.031738 
	C1438.259644,2593.985107 1441.315552,2592.582275 1445.696289,2591.359131 
z"/>
<path fill="#54619B" opacity="1.000000" stroke="none" 
	d="
M925.557373,3002.426758 
	C926.683228,3003.757080 928.379517,3005.871582 924.380127,3004.594971 
	C923.874268,3003.926758 924.717285,3002.470947 925.557373,3002.426758 
z"/>
<path fill="#5E6FB3" opacity="1.000000" stroke="none" 
	d="
M2251.931396,2652.365723 
	C2260.756836,2646.101562 2271.047852,2645.158447 2281.357910,2643.959229 
	C2287.791260,2643.211426 2294.127686,2641.631836 2302.088379,2640.222168 
	C2307.125732,2663.211914 2304.890869,2686.082520 2299.213867,2708.637207 
	C2293.583252,2731.007080 2287.065674,2753.122070 2276.308594,2775.251221 
	C2274.454102,2773.364258 2272.403564,2770.110107 2272.970703,2767.404785 
	C2278.301514,2741.976807 2277.170898,2716.467285 2273.393555,2688.185059 
	C2270.730713,2674.570312 2265.767334,2665.850830 2256.086670,2658.694824 
	C2254.378662,2655.932861 2253.155029,2654.149170 2251.931396,2652.365723 
z"/>
<path fill="#4E5760" opacity="1.000000" stroke="none" 
	d="
M2012.164917,3157.393066 
	C2013.138672,3155.001953 2014.356201,3153.981689 2017.130615,3152.812256 
	C2022.889526,3158.429443 2026.558960,3164.696777 2031.406372,3169.857178 
	C2041.069580,3180.145020 2052.140625,3178.229004 2057.152100,3164.950439 
	C2059.572754,3158.537109 2059.050049,3151.012939 2059.860107,3143.991699 
	C2060.988525,3143.911377 2062.116943,3143.831299 2064.937744,3143.616211 
	C2070.472900,3156.305176 2068.281738,3168.064941 2060.113281,3178.604492 
	C2050.437012,3191.089355 2039.522827,3192.128174 2028.785034,3180.709229 
	C2022.572998,3174.102539 2017.818848,3166.125000 2012.164917,3157.393066 
z"/>
<path fill="#4E5760" opacity="1.000000" stroke="none" 
	d="
M2263.954590,2818.982422 
	C2264.000488,2817.285156 2264.046387,2815.588135 2264.176025,2812.620361 
	C2271.691406,2815.671143 2279.432129,2819.547119 2286.470703,2824.434326 
	C2294.057129,2829.702881 2297.671875,2837.334229 2296.250244,2846.860352 
	C2294.617432,2857.803467 2287.108398,2865.246582 2276.095947,2864.960938 
	C2267.614990,2864.741211 2259.181396,2862.697021 2249.243164,2862.377930 
	C2248.530029,2860.012207 2249.300537,2856.732422 2252.429932,2853.566895 
	C2259.865967,2854.897705 2264.892578,2856.785645 2270.032471,2857.173828 
	C2277.708740,2857.753662 2282.188232,2854.245605 2285.061523,2846.983643 
	C2287.851562,2839.930664 2286.803711,2834.119629 2280.667236,2829.407959 
	C2275.483887,2825.428223 2269.554199,2822.420410 2263.954590,2818.982422 
z"/>
<path fill="#54619B" opacity="1.000000" stroke="none" 
	d="
M1418.050781,2879.971680 
	C1418.536499,2919.654053 1431.463135,2956.123047 1448.006592,2991.545898 
	C1453.569092,3003.456299 1460.875000,3014.540527 1466.909546,3026.247070 
	C1470.502075,3033.215820 1473.170898,3040.660645 1474.889404,3050.147949 
	C1463.947510,3055.141846 1454.402588,3057.996094 1444.786011,3060.583740 
	C1435.219116,3063.157959 1425.579956,3065.464355 1415.972534,3067.887939 
	C1414.166870,3067.884033 1412.361084,3067.880371 1407.692627,3068.126465 
	C1396.552124,3069.543945 1388.274658,3070.711426 1379.997070,3071.878906 
	C1361.248535,3071.641357 1342.499878,3071.403564 1320.650391,3070.726074 
	C1311.692383,3070.021484 1305.835327,3069.756836 1299.978394,3069.492432 
	C1294.440430,3068.828857 1288.902466,3068.165039 1280.448975,3066.967773 
	C1271.687134,3065.898926 1265.840576,3065.363770 1259.994141,3064.828613 
	C1253.041870,3063.113037 1246.089722,3061.397461 1236.807129,3058.962158 
	C1232.311401,3057.902588 1230.145874,3057.562988 1227.980469,3057.223389 
	C1226.292480,3056.624512 1224.604614,3056.025635 1220.503540,3054.493652 
	C1182.753174,3042.019531 1147.552856,3030.033203 1112.030151,3019.094482 
	C1088.598145,3011.878662 1064.781982,3005.752197 1039.988770,3005.143066 
	C1035.727417,3004.579102 1031.465942,3004.015137 1024.303345,3003.267578 
	C1019.601440,3003.278320 1017.800781,3003.472900 1016.000122,3003.667236 
	C1014.286072,3003.247559 1012.572021,3002.828125 1008.683228,3002.057617 
	C1004.376526,3001.267822 1002.244385,3000.829102 1000.112244,3000.390137 
	C1001.594604,2999.120361 1002.901123,2997.080566 1004.585754,2996.695557 
	C1032.297729,2990.362793 1059.907959,2983.417480 1087.854980,2978.337646 
	C1108.611572,2974.564453 1129.162476,2969.631348 1150.311157,2967.582275 
	C1166.677368,2965.996826 1182.679443,2960.972656 1198.999390,2958.512207 
	C1221.915039,2955.057129 1244.353027,2949.693359 1266.881470,2944.408447 
	C1290.135132,2938.953857 1312.759033,2931.796875 1335.483398,2924.596191 
	C1355.921631,2918.120117 1373.265381,2906.035645 1392.222900,2896.956787 
	C1401.037109,2892.735596 1408.589478,2885.879639 1418.050781,2879.971680 
z"/>
<path fill="#FCFCFC" opacity="1.000000" stroke="none" 
	d="
M1040.402344,3006.548340 
	C1064.781982,3005.752197 1088.598145,3011.878662 1112.030151,3019.094482 
	C1147.552856,3030.033203 1182.753174,3042.019531 1219.152344,3054.516602 
	C1217.832153,3059.467285 1213.880249,3060.697266 1209.923218,3059.584229 
	C1197.253662,3056.019287 1184.226074,3053.080322 1172.262207,3047.802246 
	C1153.441772,3039.498779 1134.214722,3032.800781 1114.320801,3027.821289 
	C1113.039307,3027.500488 1111.669556,3027.413574 1110.466919,3026.914062 
	C1089.568726,3018.238525 1067.482422,3014.675781 1045.284302,3011.481445 
	C1043.659302,3011.247803 1042.299194,3009.172607 1040.402344,3006.548340 
z"/>
<path fill="#FCFCFC" opacity="1.000000" stroke="none" 
	d="
M1544.466553,3104.140381 
	C1555.775635,3108.099854 1566.860352,3114.010498 1578.352905,3118.977783 
	C1595.919434,3126.570801 1613.748657,3133.559082 1631.508301,3140.699463 
	C1636.402954,3142.667480 1636.545898,3146.111084 1634.156494,3151.364258 
	C1623.604858,3146.448486 1613.787231,3141.162109 1602.242188,3139.661865 
	C1598.411499,3139.164062 1594.145630,3137.759521 1591.215210,3135.373535 
	C1581.634277,3127.572510 1570.353882,3123.741455 1558.884277,3120.281006 
	C1551.266968,3117.982910 1545.831909,3113.921143 1544.466553,3104.140381 
z"/>
<path fill="#FCFCFC" opacity="1.000000" stroke="none" 
	d="
M1416.228271,3069.337891 
	C1425.579956,3065.464355 1435.219116,3063.157959 1444.786011,3060.583740 
	C1454.402588,3057.996094 1463.947510,3055.141846 1474.883179,3051.585449 
	C1484.628662,3049.272217 1488.160889,3055.537109 1492.898315,3062.138672 
	C1470.189453,3062.434326 1448.386475,3070.283203 1426.035400,3074.860840 
	C1421.788696,3075.730469 1418.178467,3075.646973 1416.228271,3069.337891 
z"/>
<path fill="#FCFCFC" opacity="1.000000" stroke="none" 
	d="
M1380.260010,3073.330078 
	C1388.274658,3070.711426 1396.552124,3069.543945 1406.419189,3068.623535 
	C1399.847534,3081.339355 1390.982056,3083.245850 1380.260010,3073.330078 
z"/>
<path fill="#FCFCFC" opacity="1.000000" stroke="none" 
	d="
M1300.315674,3070.756836 
	C1305.835327,3069.756836 1311.692383,3070.021484 1318.805908,3071.007812 
	C1316.656860,3079.688477 1315.157593,3080.933594 1309.773438,3078.500488 
	C1306.438232,3076.993408 1303.673584,3074.224121 1300.315674,3070.756836 
z"/>
<path fill="#FCFCFC" opacity="1.000000" stroke="none" 
	d="
M909.620667,3047.933838 
	C909.563782,3045.328613 910.359863,3041.999512 912.468994,3040.308594 
	C916.346008,3037.200439 920.996033,3035.056396 926.683716,3032.323730 
	C926.648010,3041.985596 921.151001,3047.430420 909.620667,3047.933838 
z"/>
<path fill="#FCFCFC" opacity="1.000000" stroke="none" 
	d="
M1260.317871,3066.183350 
	C1265.840576,3065.363770 1271.687134,3065.898926 1278.782349,3067.178467 
	C1271.003296,3073.609131 1268.437500,3073.558350 1260.317871,3066.183350 
z"/>
<path fill="#FCFCFC" opacity="1.000000" stroke="none" 
	d="
M999.985107,3001.095215 
	C1002.244385,3000.829102 1004.376526,3001.267822 1007.380249,3002.354004 
	C1008.011292,3004.270508 1008.024109,3005.660400 1007.486023,3006.787109 
	C1005.226501,3011.518066 1004.339600,3011.378906 999.913025,3004.521240 
	C999.696228,3003.223633 999.857971,3001.800293 999.985107,3001.095215 
z"/>
<path fill="#FCFCFC" opacity="1.000000" stroke="none" 
	d="
M1496.336426,3068.518555 
	C1500.394165,3070.282715 1504.357544,3073.700195 1508.957275,3078.277832 
	C1498.372559,3079.433350 1498.372559,3079.433350 1496.336426,3068.518555 
z"/>
<path fill="#FCFCFC" opacity="1.000000" stroke="none" 
	d="
M1512.636108,3083.418457 
	C1516.331909,3084.161133 1519.977295,3086.522705 1524.306274,3089.992432 
	C1515.523315,3091.885986 1515.523315,3091.885986 1512.636108,3083.418457 
z"/>
<path fill="#FCFCFC" opacity="1.000000" stroke="none" 
	d="
M1524.807129,3092.495605 
	C1528.809082,3092.939209 1532.786499,3095.018066 1537.606934,3098.188477 
	C1533.225098,3099.339355 1527.090576,3101.813477 1524.807129,3092.495605 
z"/>
<path fill="#FCFCFC" opacity="1.000000" stroke="none" 
	d="
M1016.135498,3004.892578 
	C1017.800781,3003.472900 1019.601440,3003.278320 1022.702454,3003.514160 
	C1023.035400,3006.041016 1022.067993,3008.137207 1021.100586,3010.233643 
	C1019.490662,3008.861572 1017.880737,3007.489746 1016.135498,3004.892578 
z"/>
<path fill="#FCFCFC" opacity="1.000000" stroke="none" 
	d="
M1228.173828,3058.307373 
	C1230.145874,3057.562988 1232.311401,3057.902588 1235.270142,3059.040527 
	C1233.255249,3063.868408 1230.663452,3064.172607 1228.173828,3058.307373 
z"/>
<path fill="#F7F7F7" opacity="1.000000" stroke="none" 
	d="
M2374.586182,2194.393066 
	C2377.762207,2194.464844 2379.501709,2195.025391 2383.622070,2196.230957 
	C2386.731689,2196.612305 2387.460693,2196.348633 2388.189453,2196.085205 
	C2388.189453,2196.085205 2387.875244,2196.113770 2388.271973,2197.360352 
	C2390.537842,2199.121826 2392.407471,2199.637207 2394.276855,2200.152588 
	C2399.981689,2201.281250 2400.103027,2205.650879 2400.006348,2211.447998 
	C2398.328125,2216.189209 2396.655273,2219.575928 2395.088379,2223.010742 
	C2390.564209,2232.927246 2383.169678,2237.548584 2373.138184,2236.666016 
	C2364.113281,2235.872314 2357.009766,2229.872314 2354.892578,2220.805664 
	C2352.677979,2211.321777 2356.016846,2203.700439 2363.889648,2198.328125 
	C2366.530518,2196.526123 2370.038330,2195.994629 2374.586182,2194.393066 
z"/>
<path fill="#4E5760" opacity="1.000000" stroke="none" 
	d="
M2388.839600,2194.701172 
	C2387.460693,2196.348633 2386.731689,2196.612305 2384.997559,2196.291992 
	C2384.108154,2193.468994 2384.224121,2191.229980 2384.541016,2187.312500 
	C2386.324707,2188.194824 2387.907227,2190.756104 2388.839600,2194.701172 
z"/>
<path fill="#4E5760" opacity="1.000000" stroke="none" 
	d="
M2393.365723,2199.019531 
	C2392.407471,2199.637207 2390.537842,2199.121826 2388.232178,2197.207520 
	C2389.348877,2196.501221 2390.901855,2197.194092 2393.365723,2199.019531 
z"/>
<path fill="#97D6FE" opacity="1.000000" stroke="none" 
	d="
M2256.571045,2659.673584 
	C2265.767334,2665.850830 2270.730713,2674.570312 2272.356689,2686.927490 
	C2268.481201,2712.617432 2264.435547,2736.871094 2260.122559,2761.077393 
	C2251.002441,2812.262207 2238.714844,2862.514404 2216.890625,2910.050049 
	C2185.757324,2977.862305 2142.058594,3035.447021 2080.567871,3078.643799 
	C2042.049316,3105.702148 1999.639526,3124.299072 1954.218994,3136.305420 
	C1878.477905,3156.327148 1801.877686,3158.376709 1724.668213,3147.302734 
	C1717.531372,3146.279053 1710.546021,3144.198486 1703.760376,3142.669678 
	C1702.446411,3137.658936 1701.343262,3133.452393 1698.395508,3127.351562 
	C1690.832397,3112.916260 1679.725586,3112.200928 1667.632324,3111.232422 
	C1665.763184,3107.653564 1664.969360,3104.443115 1662.963501,3103.219727 
	C1653.506104,3097.451660 1648.415894,3087.910400 1641.786743,3079.734863 
	C1616.784058,3048.900635 1598.652954,3014.889160 1590.723267,2975.432373 
	C1588.591064,2964.822998 1590.135376,2954.004639 1586.992676,2943.979736 
	C1583.901245,2934.118164 1584.444092,2924.313232 1583.933350,2914.392822 
	C1582.903687,2894.388916 1584.216919,2874.433105 1588.538330,2855.046143 
	C1591.675049,2840.974121 1590.571655,2825.699463 1599.064331,2812.890869 
	C1600.066528,2811.379395 1599.474121,2808.902344 1600.134888,2807.057129 
	C1603.484009,2797.704102 1606.478638,2788.174805 1610.566040,2779.145508 
	C1620.725708,2756.701904 1632.662109,2735.200439 1647.097412,2715.184570 
	C1652.251953,2708.037354 1656.954834,2700.899170 1655.738647,2691.507324 
	C1658.922241,2689.073975 1662.105957,2686.640381 1668.099854,2684.077148 
	C1673.505981,2683.456543 1676.361938,2683.501465 1678.656372,2682.388672 
	C1695.156250,2674.384033 1712.523926,2671.402832 1730.786377,2671.902100 
	C1747.423828,2672.356934 1764.083862,2672.015137 1780.733765,2671.969238 
	C1788.721802,2671.947266 1796.712769,2671.904297 1804.696289,2671.665283 
	C1809.611572,2671.518066 1811.360962,2668.064453 1812.029053,2663.780029 
	C1823.899902,2663.649658 1835.770386,2663.486816 1847.641479,2663.395508 
	C1878.609985,2663.157227 1909.597412,2664.182861 1940.514282,2661.098877 
	C1948.344482,2660.317871 1956.330444,2661.100098 1966.638794,2662.865723 
	C1972.438965,2669.055420 1977.396118,2667.930664 1981.914307,2667.940674 
	C2013.210449,2668.010986 2044.506836,2667.994141 2075.803223,2667.938721 
	C2079.786133,2667.931641 2084.148193,2668.513916 2087.679443,2667.139404 
	C2098.017822,2663.115234 2108.656494,2664.087402 2119.249268,2664.031006 
	C2139.890869,2663.921387 2160.533691,2664.054932 2181.175537,2663.939453 
	C2186.476318,2663.909668 2192.163574,2664.441162 2196.986816,2662.753174 
	C2205.474121,2659.782715 2213.998779,2660.092773 2222.617920,2659.996826 
	C2233.935303,2659.870850 2245.253418,2659.779785 2256.571045,2659.673584 
M1709.123169,2784.812500 
	C1704.150269,2788.423584 1705.663330,2793.076416 1707.552368,2797.344238 
	C1716.516479,2817.596924 1728.334961,2835.926270 1745.104736,2850.664062 
	C1748.555542,2853.696289 1752.526733,2856.364990 1756.669800,2858.336182 
	C1767.075073,2863.288574 1776.323486,2861.499512 1783.921753,2853.467041 
	C1791.464966,2845.492676 1793.997681,2836.390869 1789.151001,2826.074219 
	C1787.465576,2822.486572 1785.664551,2818.776611 1783.125000,2815.796875 
	C1770.545776,2801.036621 1760.433960,2784.742188 1751.603882,2767.531494 
	C1749.272949,2762.988037 1746.831055,2757.745850 1737.468018,2756.828125 
	C1722.000854,2759.453857 1713.025391,2768.248779 1709.123169,2784.812500 
M2097.704102,2788.377686 
	C2086.547607,2767.219238 2075.320557,2746.097900 2064.265869,2724.886475 
	C2059.043701,2714.866211 2054.213867,2704.642090 2049.072754,2694.578613 
	C2047.572266,2691.641357 2045.818848,2688.779297 2043.809448,2686.169189 
	C2041.315552,2682.929688 2035.986450,2682.586670 2033.141113,2685.276367 
	C2031.708130,2686.630859 2030.275879,2688.082275 2029.226807,2689.733154 
	C2011.604980,2717.468018 2003.122681,2748.048340 2005.043457,2780.591797 
	C2006.411987,2803.778076 2012.450684,2826.328369 2023.624268,2847.242676 
	C2034.272217,2867.173096 2044.184082,2887.497070 2054.379883,2907.668213 
	C2057.960693,2914.753174 2061.686035,2921.708496 2067.865967,2927.509277 
	C2096.024414,2927.509277 2123.921387,2927.527344 2151.818359,2927.470215 
	C2153.782471,2927.466309 2155.789307,2927.072998 2157.700195,2926.571289 
	C2161.433594,2925.591553 2164.281982,2920.754395 2162.993652,2917.116455 
	C2161.901611,2914.032471 2160.239502,2911.136475 2158.696045,2908.228271 
	C2145.611572,2883.576172 2132.248291,2859.068115 2119.486572,2834.250732 
	C2112.202148,2820.085205 2105.883057,2805.423096 2097.704102,2788.377686 
M1931.724731,2877.605713 
	C1925.768433,2889.478760 1919.708008,2901.301270 1913.912598,2913.252441 
	C1911.889282,2917.424805 1910.197266,2921.933105 1914.529175,2925.917480 
	C1923.479248,2927.124512 1995.473755,2928.142578 2001.998047,2927.445801 
	C2008.297119,2926.772705 2011.301880,2922.622070 2012.974121,2917.356445 
	C2017.612915,2902.749756 2021.329956,2887.798096 2019.297485,2872.416992 
	C2016.854370,2853.927490 2011.986084,2835.831299 2003.234619,2819.324219 
	C1998.653198,2810.682373 1991.800781,2803.137207 1985.343628,2795.639893 
	C1981.876099,2791.614014 1976.527344,2792.691895 1973.487183,2797.215332 
	C1971.643555,2799.958496 1970.157837,2802.953125 1968.634033,2805.898193 
	C1956.735229,2828.895752 1944.866089,2851.908936 1931.724731,2877.605713 
z"/>
<path fill="#8DC7EE" opacity="1.000000" stroke="none" 
	d="
M1654.365723,2691.763184 
	C1656.954834,2700.899170 1652.251953,2708.037354 1647.097412,2715.184570 
	C1632.662109,2735.200439 1620.725708,2756.701904 1610.566040,2779.145508 
	C1606.478638,2788.174805 1603.484009,2797.704102 1600.134888,2807.057129 
	C1599.474121,2808.902344 1600.066528,2811.379395 1599.064331,2812.890869 
	C1590.571655,2825.699463 1591.675049,2840.974121 1588.538330,2855.046143 
	C1584.216919,2874.433105 1582.903687,2894.388916 1583.933350,2914.392822 
	C1584.444092,2924.313232 1583.901245,2934.118164 1586.992676,2943.979736 
	C1590.135376,2954.004639 1588.591064,2964.822998 1590.723267,2975.432373 
	C1598.652954,3014.889160 1616.784058,3048.900635 1641.786743,3079.734863 
	C1648.415894,3087.910400 1653.506104,3097.451660 1662.963501,3103.219727 
	C1664.969360,3104.443115 1665.763184,3107.653564 1666.902832,3112.154053 
	C1665.290039,3115.058350 1663.889648,3115.757080 1662.489380,3116.455811 
	C1653.048584,3113.753906 1650.504517,3122.939697 1643.801636,3127.647461 
	C1619.273193,3119.637451 1594.823364,3109.797119 1571.364502,3097.498535 
	C1564.907837,3094.113770 1558.732544,3090.188477 1552.250366,3086.857178 
	C1517.349243,3068.921143 1492.897461,3041.016846 1474.364258,3006.981201 
	C1451.898438,2965.723877 1437.019897,2922.185791 1432.013916,2873.731445 
	C1439.075439,2860.533447 1451.761353,2855.020996 1461.410522,2846.035400 
	C1472.030396,2836.145752 1484.039307,2827.765869 1495.155029,2818.386963 
	C1521.954102,2795.775146 1548.704590,2773.103027 1575.247192,2750.191406 
	C1597.821411,2730.705811 1621.220337,2712.337158 1646.088135,2695.867432 
	C1648.278442,2694.416748 1650.686157,2693.293945 1654.365723,2691.763184 
z"/>
<path fill="#8DC7EE" opacity="1.000000" stroke="none" 
	d="
M1810.772217,2662.835693 
	C1811.360962,2668.064453 1809.611572,2671.518066 1804.696289,2671.665283 
	C1796.712769,2671.904297 1788.721802,2671.947266 1780.733765,2671.969238 
	C1764.083862,2672.015137 1747.423828,2672.356934 1730.786377,2671.902100 
	C1712.523926,2671.402832 1695.156250,2674.384033 1678.656372,2682.388672 
	C1676.361938,2683.501465 1673.505981,2683.456543 1669.321533,2683.899902 
	C1671.059082,2681.074707 1674.132324,2677.893555 1677.770874,2675.615723 
	C1683.115967,2672.269531 1688.864624,2669.568604 1695.257080,2665.557617 
	C1712.693726,2658.708740 1729.705078,2660.416260 1746.772705,2661.518311 
	C1757.847778,2662.233643 1768.993164,2661.906738 1780.107544,2661.956299 
	C1789.909912,2662.000000 1799.712769,2661.917969 1810.772217,2662.835693 
z"/>
<path fill="#DCD2BA" opacity="1.000000" stroke="none" 
	d="
M1662.036865,3117.652832 
	C1663.889648,3115.757080 1665.290039,3115.058350 1667.419678,3113.437988 
	C1679.725586,3112.200928 1690.832397,3112.916260 1697.074219,3126.859375 
	C1694.487549,3134.755127 1692.461060,3142.126221 1688.053711,3147.569336 
	C1677.047241,3161.162354 1669.164429,3176.074219 1663.973389,3192.706299 
	C1661.090454,3201.943604 1656.987671,3204.544434 1650.109253,3203.525146 
	C1641.868042,3202.303711 1636.414673,3197.504150 1635.333374,3189.825928 
	C1633.922363,3179.807861 1634.877686,3169.837646 1639.379883,3160.773926 
	C1646.412598,3146.615967 1654.147339,3132.806641 1662.036865,3117.652832 
z"/>
<path fill="#DCD2BA" opacity="1.000000" stroke="none" 
	d="
M2059.254883,3142.675781 
	C2059.050049,3151.012939 2059.572754,3158.537109 2057.152100,3164.950439 
	C2052.140625,3178.229004 2041.069580,3180.145020 2031.406372,3169.857178 
	C2026.558960,3164.696777 2022.889526,3158.429443 2017.658691,3151.726318 
	C2015.374512,3145.657959 2014.119019,3140.526123 2012.779663,3135.051758 
	C2017.564819,3128.849121 2025.215576,3127.715332 2031.499268,3124.383789 
	C2037.264038,3121.327637 2043.379639,3118.932861 2050.368408,3115.783691 
	C2053.366455,3125.042969 2056.008057,3133.201416 2059.254883,3142.675781 
z"/>
<path fill="#DCD2BA" opacity="1.000000" stroke="none" 
	d="
M2262.746094,2819.862305 
	C2269.554199,2822.420410 2275.483887,2825.428223 2280.667236,2829.407959 
	C2286.803711,2834.119629 2287.851562,2839.930664 2285.061523,2846.983643 
	C2282.188232,2854.245605 2277.708740,2857.753662 2270.032471,2857.173828 
	C2264.892578,2856.785645 2259.865967,2854.897705 2253.474121,2852.821777 
	C2255.285156,2841.555908 2258.411377,2831.149170 2262.746094,2819.862305 
z"/>
<path fill="#97D6FC" opacity="1.000000" stroke="none" 
	d="
M2280.810791,2606.020996 
	C2275.308594,2616.335205 2266.751953,2619.134277 2257.012939,2619.688721 
	C2229.805176,2621.237793 2202.589355,2622.674805 2175.396973,2624.463135 
	C2143.583496,2626.554688 2111.791748,2628.972168 2079.989990,2631.240479 
	C2078.662354,2631.335205 2077.329102,2631.356445 2075.998047,2631.400146 
	C2028.132324,2632.976807 1980.269165,2634.642090 1932.400024,2636.104004 
	C1877.876221,2637.769287 1823.398560,2641.000488 1768.802490,2640.233154 
	C1732.850220,2639.727783 1696.884399,2640.216309 1660.930908,2639.759521 
	C1649.688354,2639.616455 1638.466553,2637.842529 1625.604736,2634.835938 
	C1623.448486,2627.594971 1623.397949,2622.231934 1622.306885,2617.089844 
	C1619.149048,2602.205811 1615.265991,2587.472656 1612.237305,2572.564941 
	C1608.294067,2553.155762 1605.402710,2533.524658 1601.151611,2514.188477 
	C1594.457275,2483.739258 1583.317871,2454.568115 1574.359009,2424.766113 
	C1569.208862,2407.633301 1564.050049,2390.481445 1559.694214,2373.137451 
	C1554.218628,2351.334229 1549.118286,2329.414307 1544.689575,2307.377197 
	C1541.176392,2289.895996 1536.792480,2272.188477 1536.578369,2254.535156 
	C1536.217407,2224.762207 1534.043701,2194.984619 1539.124634,2165.032471 
	C1542.457886,2145.383057 1545.898193,2126.158447 1552.530640,2107.331055 
	C1568.658203,2061.550537 1595.371460,2023.705811 1634.260254,1994.452393 
	C1637.071045,1992.338257 1638.178223,1987.959717 1640.077515,1984.633911 
	C1668.246460,1975.658081 1697.399048,1972.649292 1726.658325,1972.715332 
	C1762.540894,1972.796387 1798.453125,1974.151611 1834.291626,1976.085815 
	C1896.869141,1979.463257 1958.512939,1988.753784 2018.375366,2008.070679 
	C2068.232178,2024.158936 2113.908691,2048.017090 2154.659668,2081.077881 
	C2157.755127,2083.589355 2160.749512,2086.235352 2163.662842,2088.955811 
	C2164.588867,2089.820557 2165.099609,2091.130371 2166.236816,2092.925781 
	C2165.270264,2094.060303 2164.391602,2095.762695 2162.994629,2096.633301 
	C2132.893066,2115.392578 2121.130371,2144.019287 2121.224854,2177.829346 
	C2121.268799,2193.606201 2124.974854,2209.372559 2127.629395,2226.597900 
	C2130.827148,2239.016113 2132.847656,2250.152832 2136.106201,2260.914307 
	C2149.233643,2304.268555 2164.241211,2346.947021 2183.950684,2387.825195 
	C2191.207031,2402.875244 2199.734131,2417.136719 2211.503662,2429.210449 
	C2224.477051,2442.519287 2239.696533,2451.208496 2258.598145,2452.872314 
	C2267.758789,2453.678955 2276.854248,2455.227051 2285.709961,2456.403564 
	C2289.337646,2478.400879 2286.641357,2555.033203 2280.810791,2606.020996 
M2106.803711,2507.696289 
	C2120.211426,2498.014404 2128.335449,2485.476074 2130.323242,2466.765137 
	C2139.337646,2462.500488 2148.441650,2458.409180 2155.517334,2451.010986 
	C2166.269775,2439.768555 2167.985107,2425.994629 2159.883301,2412.716064 
	C2157.828613,2409.348389 2155.348389,2406.053467 2152.421875,2403.445801 
	C2147.336914,2398.915283 2143.664062,2393.714600 2141.247803,2387.325928 
	C2137.368896,2377.069824 2128.824707,2371.493652 2118.906250,2369.100586 
	C2102.169189,2365.063232 2085.230713,2366.091797 2071.134033,2376.591553 
	C2062.385986,2383.107422 2053.124023,2387.493408 2043.257080,2391.404785 
	C2038.342896,2393.352539 2033.585449,2395.878906 2029.099121,2398.689453 
	C2014.383545,2407.908691 2006.033081,2420.509766 2007.307617,2441.852539 
	C2002.425537,2449.729004 2004.041016,2458.515625 2004.059692,2466.978516 
	C2004.112671,2491.048584 2019.250610,2511.460938 2042.354004,2518.501221 
	C2043.890991,2518.969727 2046.412354,2516.207764 2051.273682,2515.834717 
	C2054.132080,2516.480225 2056.990723,2517.125732 2060.469482,2520.044189 
	C2066.774658,2525.377686 2068.110107,2525.122070 2075.411865,2517.275391 
	C2085.745850,2516.662842 2096.832764,2518.368652 2106.803711,2507.696289 
M1677.973755,2111.880127 
	C1668.122070,2118.684082 1657.860840,2124.969727 1648.484863,2132.375732 
	C1585.547974,2182.091309 1561.235840,2265.700684 1588.923340,2340.808350 
	C1614.299438,2409.646240 1662.849487,2456.533691 1730.089966,2484.693359 
	C1766.642578,2500.001221 1804.918335,2504.816406 1843.683105,2498.706055 
	C1905.589966,2488.948242 1951.413452,2455.051514 1981.132935,2399.936279 
	C2021.682983,2324.735596 2011.873901,2218.931641 1946.410034,2149.166016 
	C1904.464233,2104.464111 1852.249878,2082.651855 1791.507446,2081.922363 
	C1752.246582,2081.450684 1715.035889,2091.196777 1677.973755,2111.880127 
z"/>
<path fill="#F7F7F7" opacity="1.000000" stroke="none" 
	d="
M2135.472168,2228.406006 
	C2133.881836,2211.181152 2132.138428,2195.258057 2132.056396,2179.326416 
	C2132.009033,2170.152344 2133.732178,2160.703369 2136.253174,2151.831299 
	C2143.475586,2126.412354 2159.992676,2109.104736 2184.785889,2099.973389 
	C2209.489258,2090.875000 2234.498047,2091.966797 2259.455811,2098.809570 
	C2295.902832,2108.802490 2326.039307,2128.717041 2350.203613,2157.655029 
	C2355.744141,2164.289795 2360.629639,2171.471436 2366.862305,2179.212891 
	C2367.996582,2182.006348 2368.085205,2183.988525 2368.224365,2187.104736 
	C2362.396973,2187.478271 2356.622559,2187.430176 2350.985107,2188.285156 
	C2330.412598,2191.403564 2314.795654,2207.983643 2312.581299,2228.647461 
	C2310.610352,2247.044434 2321.931152,2266.174561 2339.586914,2273.483398 
	C2354.060791,2279.475586 2368.239990,2278.409912 2381.606445,2270.054688 
	C2385.918457,2267.359375 2389.895020,2264.126709 2395.639404,2259.972412 
	C2396.552734,2266.858643 2397.788330,2271.881836 2397.796875,2276.907227 
	C2397.881592,2327.605957 2382.389160,2372.419678 2347.047852,2409.594971 
	C2344.756836,2412.005127 2342.203125,2414.163818 2339.873535,2416.539795 
	C2316.568604,2440.307129 2288.012207,2444.599121 2256.864502,2438.667480 
	C2242.775391,2435.984131 2230.752930,2429.118896 2220.369629,2419.199707 
	C2208.185303,2407.560303 2198.791748,2393.900146 2190.810547,2379.197998 
	C2168.133301,2337.424072 2152.162354,2293.065674 2140.168945,2247.190918 
	C2138.654297,2241.395996 2137.394043,2235.534912 2135.472168,2228.406006 
z"/>
<path fill="#8DC7EE" opacity="1.000000" stroke="none" 
	d="
M2256.086670,2658.694824 
	C2245.253418,2659.779785 2233.935303,2659.870850 2222.617920,2659.996826 
	C2213.998779,2660.092773 2205.474121,2659.782715 2196.986816,2662.753174 
	C2192.163574,2664.441162 2186.476318,2663.909668 2181.175537,2663.939453 
	C2160.533691,2664.054932 2139.890869,2663.921387 2119.249268,2664.031006 
	C2108.656494,2664.087402 2098.017822,2663.115234 2087.679443,2667.139404 
	C2084.148193,2668.513916 2079.786133,2667.931641 2075.803223,2667.938721 
	C2044.506836,2667.994141 2013.210449,2668.010986 1981.914307,2667.940674 
	C1977.396118,2667.930664 1972.438965,2669.055420 1968.433716,2663.192139 
	C1973.757080,2661.298096 1979.673584,2660.417725 1985.602783,2660.322754 
	C2012.176025,2659.895996 2038.763672,2660.069092 2065.325928,2659.318604 
	C2101.808350,2658.288086 2138.354492,2657.673828 2174.716064,2654.854004 
	C2199.234375,2652.952637 2223.656494,2651.364014 2250.077148,2652.107666 
	C2253.155029,2654.149170 2254.378662,2655.932861 2256.086670,2658.694824 
z"/>
<path fill="#8DC7EE" opacity="1.000000" stroke="none" 
	d="
M1638.569580,1984.545166 
	C1638.178223,1987.959717 1637.071045,1992.338257 1634.260254,1994.452393 
	C1595.371460,2023.705811 1568.658203,2061.550537 1552.530640,2107.331055 
	C1545.898193,2126.158447 1542.457886,2145.383057 1539.124634,2165.032471 
	C1534.043701,2194.984619 1536.217407,2224.762207 1536.578369,2254.535156 
	C1536.792480,2272.188477 1541.176392,2289.895996 1544.689575,2307.377197 
	C1549.118286,2329.414307 1554.218628,2351.334229 1559.694214,2373.137451 
	C1564.050049,2390.481445 1569.208862,2407.633301 1574.359009,2424.766113 
	C1583.317871,2454.568115 1594.457275,2483.739258 1601.151611,2514.188477 
	C1605.402710,2533.524658 1608.294067,2553.155762 1612.237305,2572.564941 
	C1615.265991,2587.472656 1619.149048,2602.205811 1622.306885,2617.089844 
	C1623.397949,2622.231934 1623.448486,2627.594971 1623.939453,2634.591553 
	C1590.542236,2637.718994 1558.156250,2631.776367 1526.185181,2623.052002 
	C1512.813477,2619.402832 1499.608398,2615.144043 1486.319824,2611.188477 
	C1477.296265,2608.502686 1469.159668,2604.319580 1461.460449,2596.662109 
	C1463.279907,2550.044678 1452.898438,2506.124023 1440.711548,2462.389893 
	C1431.433716,2429.095215 1421.237915,2395.927002 1414.422852,2362.103516 
	C1401.229858,2296.625732 1403.177734,2231.150635 1420.553589,2166.406494 
	C1421.930298,2161.276611 1423.781006,2156.263916 1425.612305,2151.270752 
	C1426.280884,2149.447754 1427.534668,2147.839355 1428.825317,2145.607422 
	C1436.687866,2142.106689 1447.160767,2149.686523 1454.860718,2140.686523 
	C1452.940796,2139.366455 1451.484985,2137.535156 1449.874756,2137.387939 
	C1435.446411,2136.066650 1423.515381,2128.874756 1411.310303,2121.968506 
	C1401.518677,2116.428223 1391.210083,2111.791748 1381.065674,2106.889404 
	C1376.276733,2104.575195 1371.377319,2102.473877 1366.454834,2100.454102 
	C1344.510864,2091.449707 1331.759644,2074.146484 1324.137573,2052.664551 
	C1315.780396,2029.110718 1323.393921,2003.656006 1343.021362,1988.223511 
	C1362.859619,1972.625366 1386.149780,1967.110718 1410.583740,1968.977295 
	C1449.604370,1971.958252 1481.738892,1989.458130 1506.795654,2019.605225 
	C1515.092651,2029.588135 1519.736816,2041.121338 1520.965576,2054.149170 
	C1521.133057,2055.925049 1524.501099,2058.914551 1525.961792,2058.681152 
	C1527.931274,2058.366211 1530.950439,2055.477539 1530.959473,2053.680664 
	C1530.992188,2047.172485 1529.955078,2040.659058 1529.321533,2034.147583 
	C1549.846436,2017.145874 1592.746704,1997.359741 1638.569580,1984.545166 
M1431.013306,2068.467529 
	C1438.690552,2063.421387 1446.344360,2061.157227 1454.166382,2068.303223 
	C1455.046265,2069.107178 1456.621948,2069.149902 1458.709229,2071.620361 
	C1460.160889,2072.322266 1461.612427,2073.024414 1463.063965,2073.726562 
	C1462.715698,2072.049561 1462.469849,2070.339600 1461.952393,2068.716553 
	C1461.810181,2068.270264 1460.855957,2068.083252 1459.188110,2065.293701 
	C1449.613403,2055.994629 1438.232788,2049.530273 1426.177368,2044.065063 
	C1417.554321,2040.155884 1408.628418,2038.681885 1399.251221,2039.978760 
	C1396.586548,2040.347046 1394.121216,2040.950928 1394.782471,2045.314331 
	C1408.165161,2044.820923 1419.971802,2050.152832 1432.045776,2056.525391 
	C1430.551758,2060.752686 1429.272217,2064.373291 1425.372437,2068.438232 
	C1419.422363,2071.978516 1413.283203,2075.329102 1409.861084,2082.990723 
	C1422.339111,2079.603516 1422.339111,2079.603516 1431.013306,2068.467529 
z"/>
<path fill="#97D6FC" opacity="1.000000" stroke="none" 
	d="
M1992.605957,1928.317871 
	C2009.690552,1915.866211 2027.427490,1908.854980 2046.812744,1905.618408 
	C2056.214355,1904.048706 2065.294678,1904.384888 2074.393799,1907.273804 
	C2097.058838,1914.469849 2110.123047,1937.298462 2101.696533,1959.270630 
	C2094.797852,1977.259644 2088.060791,1995.242798 2082.274902,2013.606323 
	C2081.943359,2014.658081 2080.390869,2015.325195 2078.543945,2016.912598 
	C2059.247070,2009.918091 2039.586304,2002.179565 2019.520752,1995.693237 
	C2000.023438,1989.390747 1980.111084,1984.372314 1959.797485,1978.625000 
	C1962.239624,1956.105835 1975.511475,1941.801147 1992.605957,1928.317871 
M2055.358154,1980.390381 
	C2057.769531,1980.035522 2060.180908,1979.680664 2063.986328,1979.120605 
	C2061.732666,1975.485840 2060.201660,1973.016846 2057.836914,1969.203125 
	C2054.987061,1972.857178 2052.816162,1975.640381 2048.531494,1979.654297 
	C2045.508911,1982.451050 2042.742676,1985.299316 2046.621094,1991.413940 
	C2049.130127,1986.806885 2050.838867,1983.669556 2055.358154,1980.390381 
M2071.419189,1964.277344 
	C2074.742188,1962.342285 2078.065430,1960.407349 2082.273438,1957.957031 
	C2074.742676,1954.458496 2070.153076,1957.224731 2063.829102,1962.997437 
	C2063.007568,1964.516602 2062.186035,1966.035767 2061.364746,1967.554932 
	C2063.013916,1967.656982 2064.755127,1968.122192 2066.281006,1967.736694 
	C2067.347412,1967.467285 2068.120117,1966.034668 2071.419189,1964.277344 
M2072.242188,1985.317261 
	C2074.005371,1985.521484 2076.920654,1986.459351 2077.336914,1985.805542 
	C2079.375244,1982.606079 2076.617920,1981.518188 2074.193359,1980.675293 
	C2072.195801,1979.981079 2072.159180,1980.086304 2072.242188,1985.317261 
z"/>
<path fill="#2986FF" opacity="1.000000" stroke="none" 
	d="
M2098.416504,2789.681152 
	C2105.883057,2805.423096 2112.202148,2820.085205 2119.486572,2834.250732 
	C2132.248291,2859.068115 2145.611572,2883.576172 2158.696045,2908.228271 
	C2160.239502,2911.136475 2161.901611,2914.032471 2162.993652,2917.116455 
	C2164.281982,2920.754395 2161.433594,2925.591553 2157.700195,2926.571289 
	C2155.789307,2927.072998 2153.782471,2927.466309 2151.818359,2927.470215 
	C2123.921387,2927.527344 2096.024414,2927.509277 2067.865967,2927.509277 
	C2061.686035,2921.708496 2057.960693,2914.753174 2054.379883,2907.668213 
	C2044.184082,2887.497070 2034.272217,2867.173096 2023.624268,2847.242676 
	C2012.450684,2826.328369 2006.411987,2803.778076 2005.043457,2780.591797 
	C2003.122681,2748.048340 2011.604980,2717.468018 2029.226807,2689.733154 
	C2030.275879,2688.082275 2031.708130,2686.630859 2033.141113,2685.276367 
	C2035.986450,2682.586670 2041.315552,2682.929688 2043.809448,2686.169189 
	C2045.818848,2688.779297 2047.572266,2691.641357 2049.072754,2694.578613 
	C2054.213867,2704.642090 2059.043701,2714.866211 2064.265869,2724.886475 
	C2075.320557,2746.097900 2086.547607,2767.219238 2098.416504,2789.681152 
z"/>
<path fill="#2986FF" opacity="1.000000" stroke="none" 
	d="
M1932.356201,2876.261475 
	C1944.866089,2851.908936 1956.735229,2828.895752 1968.634033,2805.898193 
	C1970.157837,2802.953125 1971.643555,2799.958496 1973.487183,2797.215332 
	C1976.527344,2792.691895 1981.876099,2791.614014 1985.343628,2795.639893 
	C1991.800781,2803.137207 1998.653198,2810.682373 2003.234619,2819.324219 
	C2011.986084,2835.831299 2016.854370,2853.927490 2019.297485,2872.416992 
	C2021.329956,2887.798096 2017.612915,2902.749756 2012.974121,2917.356445 
	C2011.301880,2922.622070 2008.297119,2926.772705 2001.998047,2927.445801 
	C1995.473755,2928.142578 1923.479248,2927.124512 1914.529175,2925.917480 
	C1910.197266,2921.933105 1911.889282,2917.424805 1913.912598,2913.252441 
	C1919.708008,2901.301270 1925.768433,2889.478760 1932.356201,2876.261475 
z"/>
<path fill="#DCD2BA" opacity="1.000000" stroke="none" 
	d="
M1711.515015,2784.137939 
	C1713.025391,2768.248779 1722.000854,2759.453857 1739.101562,2758.395996 
	C1743.417969,2765.274170 1746.396118,2770.458984 1748.726929,2775.919678 
	C1755.059937,2790.757812 1763.283325,2804.311279 1774.406616,2816.082520 
	C1776.665771,2818.473389 1778.548462,2821.305420 1780.200439,2824.167725 
	C1785.105225,2832.666748 1784.172241,2838.688232 1777.171143,2845.645264 
	C1770.319824,2852.453369 1763.896240,2853.425537 1755.542114,2848.730469 
	C1753.236572,2847.434814 1750.861572,2846.029297 1749.021729,2844.174805 
	C1731.992188,2827.008301 1717.104004,2808.466309 1711.515015,2784.137939 
z"/>
<path fill="#4E5760" opacity="1.000000" stroke="none" 
	d="
M1710.319092,2784.475098 
	C1717.104004,2808.466309 1731.992188,2827.008301 1749.021729,2844.174805 
	C1750.861572,2846.029297 1753.236572,2847.434814 1755.542114,2848.730469 
	C1763.896240,2853.425537 1770.319824,2852.453369 1777.171143,2845.645264 
	C1784.172241,2838.688232 1785.105225,2832.666748 1780.200439,2824.167725 
	C1778.548462,2821.305420 1776.665771,2818.473389 1774.406616,2816.082520 
	C1763.283325,2804.311279 1755.059937,2790.757812 1748.726929,2775.919678 
	C1746.396118,2770.458984 1743.417969,2765.274170 1740.565430,2758.653564 
	C1746.831055,2757.745850 1749.272949,2762.988037 1751.603882,2767.531494 
	C1760.433960,2784.742188 1770.545776,2801.036621 1783.125000,2815.796875 
	C1785.664551,2818.776611 1787.465576,2822.486572 1789.151001,2826.074219 
	C1793.997681,2836.390869 1791.464966,2845.492676 1783.921753,2853.467041 
	C1776.323486,2861.499512 1767.075073,2863.288574 1756.669800,2858.336182 
	C1752.526733,2856.364990 1748.555542,2853.696289 1745.104736,2850.664062 
	C1728.334961,2835.926270 1716.516479,2817.596924 1707.552368,2797.344238 
	C1705.663330,2793.076416 1704.150269,2788.423584 1710.319092,2784.475098 
z"/>
<path fill="#425262" opacity="1.000000" stroke="none" 
	d="
M1679.276855,2111.193359 
	C1715.035889,2091.196777 1752.246582,2081.450684 1791.507446,2081.922363 
	C1852.249878,2082.651855 1904.464233,2104.464111 1946.410034,2149.166016 
	C2011.873901,2218.931641 2021.682983,2324.735596 1981.132935,2399.936279 
	C1951.413452,2455.051514 1905.589966,2488.948242 1843.683105,2498.706055 
	C1804.918335,2504.816406 1766.642578,2500.001221 1730.089966,2484.693359 
	C1662.849487,2456.533691 1614.299438,2409.646240 1588.923340,2340.808350 
	C1561.235840,2265.700684 1585.547974,2182.091309 1648.484863,2132.375732 
	C1657.860840,2124.969727 1668.122070,2118.684082 1679.276855,2111.193359 
M1919.960205,2141.815918 
	C1845.997314,2082.355713 1743.112793,2084.676270 1671.581421,2132.784912 
	C1609.087036,2174.815674 1579.374268,2246.439209 1599.366699,2323.086182 
	C1621.426758,2407.660156 1700.041382,2477.227539 1786.873047,2486.937012 
	C1851.565918,2494.171143 1906.771606,2474.132568 1948.963989,2423.599609 
	C1988.646973,2376.071777 2000.260376,2320.555664 1989.933838,2260.463867 
	C1981.860596,2213.484131 1958.631226,2174.547119 1919.960205,2141.815918 
z"/>
<path fill="#425262" opacity="1.000000" stroke="none" 
	d="
M2059.849121,2517.771240 
	C2056.990723,2517.125732 2054.132080,2516.480225 2049.500977,2513.724854 
	C2048.441895,2502.471924 2049.135986,2493.327393 2049.877441,2484.186523 
	C2050.289062,2479.109131 2050.779297,2474.038330 2051.297607,2468.258057 
	C2033.555908,2462.332764 2019.340820,2453.042480 2008.858643,2438.682861 
	C2006.033081,2420.509766 2014.383545,2407.908691 2029.099121,2398.689453 
	C2033.585449,2395.878906 2038.342896,2393.352539 2043.257080,2391.404785 
	C2053.124023,2387.493408 2062.385986,2383.107422 2071.134033,2376.591553 
	C2085.230713,2366.091797 2102.169189,2365.063232 2118.906250,2369.100586 
	C2128.824707,2371.493652 2137.368896,2377.069824 2141.247803,2387.325928 
	C2143.664062,2393.714600 2147.336914,2398.915283 2152.421875,2403.445801 
	C2155.348389,2406.053467 2157.828613,2409.348389 2159.883301,2412.716064 
	C2167.985107,2425.994629 2166.269775,2439.768555 2155.517334,2451.010986 
	C2148.441650,2458.409180 2139.337646,2462.500488 2127.645996,2467.558838 
	C2119.395508,2470.090820 2113.822510,2471.829102 2107.403809,2473.831299 
	C2106.221924,2485.671631 2105.107910,2496.830811 2103.994141,2507.990234 
	C2096.832764,2518.368652 2085.745850,2516.662842 2072.263184,2517.210449 
	C2066.025879,2517.354248 2062.937500,2517.562744 2059.849121,2517.771240 
M2131.912598,2454.906494 
	C2135.715820,2452.271240 2139.932617,2450.072021 2143.249023,2446.924316 
	C2156.456299,2434.389160 2155.366943,2421.797852 2140.322266,2409.010986 
	C2116.353516,2428.052002 2077.843018,2422.000977 2056.540527,2399.979248 
	C2053.253174,2401.635498 2049.599854,2403.152588 2046.304565,2405.236328 
	C2043.529541,2406.991455 2040.969116,2409.207275 2038.662476,2411.561035 
	C2028.477173,2421.954834 2028.258423,2435.077148 2039.351074,2444.696045 
	C2045.719360,2450.218018 2053.455566,2454.832031 2061.348389,2457.799561 
	C2083.934570,2466.289795 2106.716553,2466.479736 2131.912598,2454.906494 
M2084.683838,2473.750732 
	C2076.378418,2473.751221 2068.057617,2470.595459 2059.206299,2473.040527 
	C2057.207520,2482.003906 2055.228027,2490.283691 2053.556641,2498.625488 
	C2052.701904,2502.890869 2054.070312,2507.272461 2058.278809,2508.377441 
	C2069.270752,2511.262939 2080.749268,2512.035156 2091.015869,2506.524902 
	C2098.336426,2502.595703 2096.499268,2493.677246 2098.016357,2486.818604 
	C2098.828369,2483.146973 2098.160645,2479.147949 2098.160645,2474.698975 
	C2094.547119,2474.392822 2091.319824,2474.119385 2084.683838,2473.750732 
z"/>
<path fill="#8DC7EE" opacity="1.000000" stroke="none" 
	d="
M2008.083130,2440.267578 
	C2019.340820,2453.042480 2033.555908,2462.332764 2051.297607,2468.258057 
	C2050.779297,2474.038330 2050.289062,2479.109131 2049.877441,2484.186523 
	C2049.135986,2493.327393 2048.441895,2502.471924 2048.102051,2513.281738 
	C2046.412354,2516.207764 2043.890991,2518.969727 2042.354004,2518.501221 
	C2019.250610,2511.460938 2004.112671,2491.048584 2004.059692,2466.978516 
	C2004.041016,2458.515625 2002.425537,2449.729004 2008.083130,2440.267578 
z"/>
<path fill="#8DC7EE" opacity="1.000000" stroke="none" 
	d="
M2105.398926,2507.843262 
	C2105.107910,2496.830811 2106.221924,2485.671631 2107.403809,2473.831299 
	C2113.822510,2471.829102 2119.395508,2470.090820 2126.511230,2468.372559 
	C2128.335449,2485.476074 2120.211426,2498.014404 2105.398926,2507.843262 
z"/>
<path fill="#8DC7EE" opacity="1.000000" stroke="none" 
	d="
M2060.159180,2518.907715 
	C2062.937500,2517.562744 2066.025879,2517.354248 2070.635498,2517.476074 
	C2068.110107,2525.122070 2066.774658,2525.377686 2060.159180,2518.907715 
z"/>
<path fill="#425262" opacity="1.000000" stroke="none" 
	d="
M1457.875000,2069.545410 
	C1456.621948,2069.149902 1455.046265,2069.107178 1454.166382,2068.303223 
	C1446.344360,2061.157227 1438.690552,2063.421387 1429.506836,2068.233887 
	C1428.000366,2068.000000 1427.992676,2067.993896 1427.992676,2067.993896 
	C1429.272217,2064.373291 1430.551758,2060.752686 1432.045776,2056.525391 
	C1419.971802,2050.152832 1408.165161,2044.820923 1394.782471,2045.314331 
	C1394.121216,2040.950928 1396.586548,2040.347046 1399.251221,2039.978760 
	C1408.628418,2038.681885 1417.554321,2040.155884 1426.177368,2044.065063 
	C1438.232788,2049.530273 1449.613403,2055.994629 1459.134521,2066.981689 
	C1459.080933,2068.669678 1457.875000,2069.545410 1457.875000,2069.545410 
z"/>
<path fill="#425262" opacity="1.000000" stroke="none" 
	d="
M1428.011963,2068.010254 
	C1422.339111,2079.603516 1422.339111,2079.603516 1409.861084,2082.990723 
	C1413.283203,2075.329102 1419.422363,2071.978516 1426.682617,2068.216064 
	C1427.992676,2067.993896 1428.000366,2068.000000 1428.011963,2068.010254 
z"/>
<path fill="#425262" opacity="1.000000" stroke="none" 
	d="
M1459.677612,2068.223389 
	C1460.855957,2068.083252 1461.810181,2068.270264 1461.952393,2068.716553 
	C1462.469849,2070.339600 1462.715698,2072.049561 1463.063965,2073.726562 
	C1461.612427,2073.024414 1460.160889,2072.322266 1458.292114,2070.583008 
	C1457.875000,2069.545410 1459.080933,2068.669678 1459.677612,2068.223389 
z"/>
<path fill="#54619B" opacity="1.000000" stroke="none" 
	d="
M2066.077881,1961.877808 
	C2070.153076,1957.224731 2074.742676,1954.458496 2082.273438,1957.957031 
	C2078.065430,1960.407349 2074.742188,1962.342285 2069.498047,1963.876709 
	C2067.077148,1962.943237 2066.577637,1962.410522 2066.077881,1961.877808 
z"/>
<path fill="#54619B" opacity="1.000000" stroke="none" 
	d="
M2050.645508,1978.423584 
	C2052.816162,1975.640381 2054.987061,1972.857178 2057.836914,1969.203125 
	C2060.201660,1973.016846 2061.732666,1975.485840 2063.986328,1979.120605 
	C2060.180908,1979.680664 2057.769531,1980.035522 2053.467773,1979.942627 
	C2051.577637,1979.494751 2050.645508,1978.423584 2050.645508,1978.423584 
z"/>
<path fill="#54619B" opacity="1.000000" stroke="none" 
	d="
M2052.062500,1980.013428 
	C2050.838867,1983.669556 2049.130127,1986.806885 2046.621094,1991.413940 
	C2042.742676,1985.299316 2045.508911,1982.451050 2049.588379,1979.038940 
	C2050.645508,1978.423584 2051.577637,1979.494751 2052.062500,1980.013428 
z"/>
<path fill="#54619B" opacity="1.000000" stroke="none" 
	d="
M2071.249512,1984.602295 
	C2072.159180,1980.086304 2072.195801,1979.981079 2074.193359,1980.675293 
	C2076.617920,1981.518188 2079.375244,1982.606079 2077.336914,1985.805542 
	C2076.920654,1986.459351 2074.005371,1985.521484 2071.249512,1984.602295 
z"/>
<path fill="#54619B" opacity="1.000000" stroke="none" 
	d="
M2068.300293,1964.298706 
	C2068.120117,1966.034668 2067.347412,1967.467285 2066.281006,1967.736694 
	C2064.755127,1968.122192 2063.013916,1967.656982 2061.364746,1967.554932 
	C2062.186035,1966.035767 2063.007568,1964.516602 2064.953613,1962.437622 
	C2066.577637,1962.410522 2067.077148,1962.943237 2068.300293,1964.298706 
z"/>
<path fill="#F7F7F7" opacity="1.000000" stroke="none" 
	d="
M1921.046875,2142.753418 
	C1958.631226,2174.547119 1981.860596,2213.484131 1989.933838,2260.463867 
	C2000.260376,2320.555664 1988.646973,2376.071777 1948.963989,2423.599609 
	C1906.771606,2474.132568 1851.565918,2494.171143 1786.873047,2486.937012 
	C1700.041382,2477.227539 1621.426758,2407.660156 1599.366699,2323.086182 
	C1579.374268,2246.439209 1609.087036,2174.815674 1671.581421,2132.784912 
	C1743.112793,2084.676270 1845.997314,2082.355713 1921.046875,2142.753418 
M1791.626587,2270.874512 
	C1787.783936,2273.413086 1784.252075,2276.843750 1780.036621,2278.312012 
	C1769.888672,2281.845947 1760.361694,2279.919434 1752.348755,2272.447510 
	C1741.586182,2262.411621 1740.703003,2246.584961 1749.653564,2234.553711 
	C1752.501709,2230.725098 1758.593262,2229.235107 1759.431519,2223.315674 
	C1730.648071,2216.620850 1704.424072,2229.317383 1692.851562,2254.651855 
	C1681.468140,2279.572021 1689.416016,2309.532227 1711.717407,2325.767578 
	C1733.781372,2341.830078 1765.181885,2339.779541 1785.107666,2321.111328 
	C1795.223145,2311.634277 1801.192993,2299.906250 1802.988159,2286.408691 
	C1804.062866,2278.329102 1805.900269,2269.494629 1798.568481,2261.776367 
	C1796.530396,2264.494385 1794.977539,2266.565186 1791.626587,2270.874512 
z"/>
<path fill="#DCD2BA" opacity="1.000000" stroke="none" 
	d="
M2130.478027,2455.534668 
	C2106.716553,2466.479736 2083.934570,2466.289795 2061.348389,2457.799561 
	C2053.455566,2454.832031 2045.719360,2450.218018 2039.351074,2444.696045 
	C2028.258423,2435.077148 2028.477173,2421.954834 2038.662476,2411.561035 
	C2040.969116,2409.207275 2043.529541,2406.991455 2046.304565,2405.236328 
	C2049.599854,2403.152588 2053.253174,2401.635498 2056.540527,2399.979248 
	C2077.843018,2422.000977 2116.353516,2428.052002 2140.322266,2409.010986 
	C2155.366943,2421.797852 2156.456299,2434.389160 2143.249023,2446.924316 
	C2139.932617,2450.072021 2135.715820,2452.271240 2130.478027,2455.534668 
z"/>
<path fill="#F7F7F7" opacity="1.000000" stroke="none" 
	d="
M2086.388184,2473.798340 
	C2091.319824,2474.119385 2094.547119,2474.392822 2098.160645,2474.698975 
	C2098.160645,2479.147949 2098.828369,2483.146973 2098.016357,2486.818604 
	C2096.499268,2493.677246 2098.336426,2502.595703 2091.015869,2506.524902 
	C2080.749268,2512.035156 2069.270752,2511.262939 2058.278809,2508.377441 
	C2054.070312,2507.272461 2052.701904,2502.890869 2053.556641,2498.625488 
	C2055.228027,2490.283691 2057.207520,2482.003906 2059.206299,2473.040527 
	C2068.057617,2470.595459 2076.378418,2473.751221 2086.388184,2473.798340 
z"/>
<path fill="#425262" opacity="1.000000" stroke="none" 
	d="
M1792.525635,2269.755371 
	C1794.977539,2266.565186 1796.530396,2264.494385 1798.568481,2261.776367 
	C1805.900269,2269.494629 1804.062866,2278.329102 1802.988159,2286.408691 
	C1801.192993,2299.906250 1795.223145,2311.634277 1785.107666,2321.111328 
	C1765.181885,2339.779541 1733.781372,2341.830078 1711.717407,2325.767578 
	C1689.416016,2309.532227 1681.468140,2279.572021 1692.851562,2254.651855 
	C1704.424072,2229.317383 1730.648071,2216.620850 1759.431519,2223.315674 
	C1758.593262,2229.235107 1752.501709,2230.725098 1749.653564,2234.553711 
	C1740.703003,2246.584961 1741.586182,2262.411621 1752.348755,2272.447510 
	C1760.361694,2279.919434 1769.888672,2281.845947 1780.036621,2278.312012 
	C1784.252075,2276.843750 1787.783936,2273.413086 1792.525635,2269.755371 
z"/>
</svg>